<svg xmlns="http://www.w3.org/2000/svg" xmlns:xlink="http://www.w3.org/1999/xlink" width="185.048" height="50.34" viewBox="0 0 185.048 50.34">
  <defs>
    <linearGradient id="linear-gradient" x1="0.5" x2="0.5" y2="1" gradientUnits="objectBoundingBox">
      <stop offset="0" stop-color="#870043"/>
      <stop offset="0" stop-color="#f80074"/>
      <stop offset="1" stop-color="#8d0046"/>
      <stop offset="1" stop-color="#f07"/>
    </linearGradient>
  </defs>
  <g id="logo" transform="translate(-53.77 -57.495)">
    <g id="Grupo_40" data-name="Grupo 40">
      <path id="Trazado_20" data-name="Trazado 20" d="M57.691,87.532H53.77V58.567h3.921Z" fill="#666"/>
      <path id="Trazado_21" data-name="Trazado 21" d="M63,87.532V67.056h2.142a.919.919,0,0,1,.971.748l.283,2.223a11.51,11.51,0,0,1,2.981-2.385,7.76,7.76,0,0,1,3.811-.909,7.4,7.4,0,0,1,2.96.555,5.733,5.733,0,0,1,2.143,1.577,6.954,6.954,0,0,1,1.3,2.456,10.705,10.705,0,0,1,.444,3.173V87.532h-3.6V74.494a5.516,5.516,0,0,0-1.061-3.608A3.97,3.97,0,0,0,72.14,69.6a6.047,6.047,0,0,0-2.982.768A9.808,9.808,0,0,0,66.6,72.453V87.532Z" fill="#666"/>
      <path id="Trazado_22" data-name="Trazado 22" d="M127.828,87.532a1.226,1.226,0,0,1-1.273-.91l-.4-2a12.369,12.369,0,0,1-1.354,1.314,8.565,8.565,0,0,1-1.527,1.011,7.917,7.917,0,0,1-1.759.657,8.482,8.482,0,0,1-2.03.233,6.757,6.757,0,0,1-5.549-2.76,9.809,9.809,0,0,1-1.577-3.325,16.813,16.813,0,0,1-.556-4.528,14.131,14.131,0,0,1,.627-4.285,10.426,10.426,0,0,1,1.8-3.436,8.4,8.4,0,0,1,2.809-2.274,8.113,8.113,0,0,1,3.68-.819,7.207,7.207,0,0,1,2.971.556,7.807,7.807,0,0,1,2.2,1.486V57.495h4.993V87.532Zm-6.649-3.659a5.108,5.108,0,0,0,2.647-.646,7.881,7.881,0,0,0,2.062-1.84v-9.3a4.909,4.909,0,0,0-1.85-1.455,5.448,5.448,0,0,0-2.152-.425,4.838,4.838,0,0,0-2.052.425,4.021,4.021,0,0,0-1.556,1.283A6.284,6.284,0,0,0,117.3,74.1a12.542,12.542,0,0,0-.343,3.123,13.83,13.83,0,0,0,.293,3.083,6.069,6.069,0,0,0,.839,2.062,3.192,3.192,0,0,0,1.334,1.152A4.245,4.245,0,0,0,121.179,83.873Z" fill="#666"/>
      <path id="Trazado_23" data-name="Trazado 23" d="M146.667,87.532h-4.528l-8.247-20.739h4.145a1.562,1.562,0,0,1,.919.263,1.347,1.347,0,0,1,.515.667l4,11.077q.343.97.577,1.9c.154.62.293,1.24.413,1.86.123-.62.26-1.24.415-1.86a17.716,17.716,0,0,1,.6-1.9l4.1-11.077a1.364,1.364,0,0,1,.506-.667,1.442,1.442,0,0,1,.869-.263h3.941Z" fill="#666"/>
      <path id="Trazado_24" data-name="Trazado 24" d="M174.1,87.532h-2.244a2.42,2.42,0,0,1-1.111-.212,1.359,1.359,0,0,1-.606-.859l-.445-1.476a17.157,17.157,0,0,1-1.547,1.243,9.382,9.382,0,0,1-1.566.9,8.068,8.068,0,0,1-1.718.546,10.371,10.371,0,0,1-2.022.182,7.952,7.952,0,0,1-2.425-.355,5.224,5.224,0,0,1-1.91-1.065,4.818,4.818,0,0,1-1.243-1.764,6.271,6.271,0,0,1-.445-2.454,4.854,4.854,0,0,1,.616-2.323,5.816,5.816,0,0,1,2.052-2.068A13.085,13.085,0,0,1,163.3,76.3a24.386,24.386,0,0,1,5.923-.609V74.465a4.636,4.636,0,0,0-.879-3.106,3.211,3.211,0,0,0-2.557-1.008,6.17,6.17,0,0,0-2.021.283,7.8,7.8,0,0,0-1.406.637c-.4.235-.765.448-1.1.636a2.235,2.235,0,0,1-1.112.283,1.44,1.44,0,0,1-.869-.263,2.045,2.045,0,0,1-.586-.646l-.91-1.6a12.332,12.332,0,0,1,8.631-3.275,8.328,8.328,0,0,1,3.244.6,6.9,6.9,0,0,1,2.416,1.657,7.1,7.1,0,0,1,1.506,2.537,9.766,9.766,0,0,1,.515,3.234Zm-9.7-3.113a6.723,6.723,0,0,0,1.415-.139,5.415,5.415,0,0,0,1.223-.418,6.521,6.521,0,0,0,1.111-.686,10.123,10.123,0,0,0,1.082-.965V78.739a20.3,20.3,0,0,0-3.649.275,9.66,9.66,0,0,0-2.354.7,3.032,3.032,0,0,0-1.264,1,2.214,2.214,0,0,0-.374,1.242,2.189,2.189,0,0,0,.778,1.893A3.357,3.357,0,0,0,164.394,84.419Z" fill="#666"/>
      <path id="Trazado_25" data-name="Trazado 25" d="M179.008,87.532V66.793h3.052a1.226,1.226,0,0,1,1.273.91l.344,1.637A11.368,11.368,0,0,1,185,68.168a9.269,9.269,0,0,1,1.476-.91,7.511,7.511,0,0,1,1.667-.586,8.8,8.8,0,0,1,1.94-.2,7.434,7.434,0,0,1,3.012.576,5.943,5.943,0,0,1,2.194,1.617,7.127,7.127,0,0,1,1.334,2.486,10.576,10.576,0,0,1,.455,3.184v13.2h-4.993v-13.2a4.43,4.43,0,0,0-.879-2.941,3.262,3.262,0,0,0-2.639-1.041,5.2,5.2,0,0,0-2.425.586,8.692,8.692,0,0,0-2.143,1.6v15Z" fill="#666"/>
      <path id="Trazado_26" data-name="Trazado 26" d="M216.564,71.18a2.52,2.52,0,0,1-.434.444,1,1,0,0,1-.617.162,1.369,1.369,0,0,1-.747-.233q-.365-.231-.869-.525a6.561,6.561,0,0,0-1.2-.525,5.528,5.528,0,0,0-1.728-.233,5.266,5.266,0,0,0-2.305.475,4.355,4.355,0,0,0-1.647,1.364,6.149,6.149,0,0,0-.981,2.153,11.54,11.54,0,0,0-.324,2.86,11.158,11.158,0,0,0,.355,2.951,6.283,6.283,0,0,0,1.02,2.173A4.4,4.4,0,0,0,208.7,83.58a4.889,4.889,0,0,0,2.142.455,5.3,5.3,0,0,0,1.931-.293,6.034,6.034,0,0,0,1.243-.647q.506-.353.88-.646a1.322,1.322,0,0,1,.838-.294,1.016,1.016,0,0,1,.911.465l1.434,1.82a9.026,9.026,0,0,1-1.8,1.627,9.742,9.742,0,0,1-2.012,1.051,10.338,10.338,0,0,1-2.153.556,15.4,15.4,0,0,1-2.2.162,9.205,9.205,0,0,1-3.618-.718,8.446,8.446,0,0,1-2.962-2.092,10.088,10.088,0,0,1-2-3.366,12.976,12.976,0,0,1-.738-4.538,13.2,13.2,0,0,1,.657-4.235,9.578,9.578,0,0,1,1.93-3.375,8.848,8.848,0,0,1,3.154-2.234,10.854,10.854,0,0,1,4.325-.808,10.274,10.274,0,0,1,4.072.748,9.972,9.972,0,0,1,3.144,2.142Z" fill="#666"/>
      <path id="Trazado_27" data-name="Trazado 27" d="M229.844,66.47a10.085,10.085,0,0,1,3.608.626,7.927,7.927,0,0,1,2.84,1.83,8.361,8.361,0,0,1,1.86,2.951,11.16,11.16,0,0,1,.666,3.992,7.365,7.365,0,0,1-.05.94,1.506,1.506,0,0,1-.182.586.729.729,0,0,1-.354.3,1.5,1.5,0,0,1-.566.091H224.851a7.136,7.136,0,0,0,1.719,4.69,5.352,5.352,0,0,0,3.961,1.5,6.815,6.815,0,0,0,2.092-.284,9.684,9.684,0,0,0,1.536-.626q.657-.344,1.153-.626a1.928,1.928,0,0,1,.96-.284,1.077,1.077,0,0,1,.525.122,1.167,1.167,0,0,1,.384.343l1.455,1.82a8.309,8.309,0,0,1-1.859,1.627,10.431,10.431,0,0,1-2.153,1.051,11.917,11.917,0,0,1-2.283.556,16.507,16.507,0,0,1-2.254.162,11.086,11.086,0,0,1-4.023-.718A9,9,0,0,1,222.829,85a9.976,9.976,0,0,1-2.162-3.476,13.468,13.468,0,0,1-.788-4.8,11.481,11.481,0,0,1,.687-3.992,9.6,9.6,0,0,1,1.971-3.254,9.28,9.28,0,0,1,3.132-2.194A10.327,10.327,0,0,1,229.844,66.47Zm.1,3.577a4.616,4.616,0,0,0-3.416,1.234,6.08,6.08,0,0,0-1.577,3.5h9.379a6.2,6.2,0,0,0-.263-1.829,4.213,4.213,0,0,0-.808-1.5,3.818,3.818,0,0,0-1.374-1.021A4.681,4.681,0,0,0,229.945,70.047Z" fill="#666"/>
      <g id="Grupo_39" data-name="Grupo 39">
        <path id="Trazado_28" data-name="Trazado 28" d="M100.525,62.1l-2.519,6.434,2.9,7.937H94.9l-1.5,3.836h8.9l2.18,5.956a2.016,2.016,0,0,0,.657.878,1.833,1.833,0,0,0,1.161.353h4.2Z" fill="#666"/>
        <path id="Trazado_29" data-name="Trazado 29" d="M98.616,58.3l-2.435,0a3.083,3.083,0,0,0-1.72.493,2.932,2.932,0,0,0-1.116,1.427L82.811,87.14l-.136.358,2.429.012a3.083,3.083,0,0,0,1.72-.493,2.938,2.938,0,0,0,1.115-1.424v0l8.476-21.653,2.058-5.26h0l.146-.373Z" fill="url(#linear-gradient)"/>
      </g>
    </g>
    <text id="consulting_group" data-name="consulting group" transform="translate(53.77 103.835)" fill="#666" font-size="12.945" font-family="OpenSans-LightItalic, Open Sans" font-weight="300" font-style="italic" letter-spacing="-0.02em"><tspan x="0" y="0">consulting group</tspan></text>
  </g>
</svg>
