<?xml version="1.0" encoding="UTF-8" standalone="no"?>
<!-- Created with Inkscape (http://www.inkscape.org/) -->

<svg
   width="100"
   height="100"
   viewBox="0 0 26.458333 26.458333"
   version="1.1"
   id="svg185"
   inkscape:version="1.2.2 (732a01da63, 2022-12-09)"
   sodipodi:docname="Arquitectura_cloud.svg"
   xmlns:inkscape="http://www.inkscape.org/namespaces/inkscape"
   xmlns:sodipodi="http://sodipodi.sourceforge.net/DTD/sodipodi-0.dtd"
   xmlns="http://www.w3.org/2000/svg"
   xmlns:svg="http://www.w3.org/2000/svg">
  <sodipodi:namedview
     id="namedview187"
     pagecolor="#ffffff"
     bordercolor="#000000"
     borderopacity="0.25"
     inkscape:showpageshadow="2"
     inkscape:pageopacity="0.0"
     inkscape:pagecheckerboard="0"
     inkscape:deskcolor="#d1d1d1"
     inkscape:document-units="mm"
     showgrid="false"
     inkscape:zoom="1.1893044"
     inkscape:cx="53.812968"
     inkscape:cy="321.61657"
     inkscape:window-width="4300"
     inkscape:window-height="1711"
     inkscape:window-x="2391"
     inkscape:window-y="-9"
     inkscape:window-maximized="1"
     inkscape:current-layer="g314" />
  <defs
     id="defs182" />
  <g
     inkscape:label="Capa 1"
     inkscape:groupmode="layer"
     id="layer1">
    <g
       transform="matrix(0.26458333,0,0,0.26458333,-84.878274,-17.952667)"
       id="g314">
      <g
         transform="translate(-307.75056,-85.856913)"
         id="g542">
        <path
           d="m 704.431,190.808 c 0.512,-7.603 -5.623,-13.938 -13.29,-13.938 -2.812,0 -5.368,0.76 -7.668,2.027 C 680.917,172.308 674.527,168 667.115,168 c -9.712,0 -17.636,7.856 -17.636,17.486 0,1.774 0.256,3.548 0.767,5.322 -6.39,1.014 -11.246,6.336 -11.246,13.178 0,7.096 5.623,12.925 12.524,13.178 0,0 -0.511,0 14.824,0 0,8.11 0,8.11 0,8.11 0,1.521 -1.278,2.788 -2.811,3.041 -0.256,-2.027 -2.301,-3.801 -4.601,-3.801 -2.556,0 -4.601,2.281 -4.601,4.815 0,2.534 2.045,4.561 4.601,4.561 2.3,0 4.345,-1.774 4.601,-3.801 2.811,-0.253 4.856,-2.281 4.856,-5.068 0,-8.11 0,-8.11 0,-8.11 6.645,0 6.645,0 6.645,0 0,16.473 0,16.473 0,16.473 0,1.52 -1.278,3.041 -2.811,3.041 -0.511,-2.028 -2.556,-3.548 -4.601,-3.548 -2.556,0 -4.856,2.027 -4.856,4.561 0,2.535 2.3,4.562 4.856,4.562 2.045,0 4.09,-1.521 4.601,-3.801 2.556,0 4.6,-2.281 4.6,-5.069 0,-16.219 0,-16.219 0,-16.219 5.879,0 5.879,0 5.879,0 0,16.219 0,16.219 0,16.219 0,2.788 2.045,5.069 4.856,5.069 0.256,2.28 2.301,3.801 4.601,3.801 2.556,0 4.601,-2.027 4.601,-4.562 0,-2.534 -2.045,-4.561 -4.601,-4.561 -2.3,0 -4.345,1.52 -4.601,3.548 -1.789,0 -3.067,-1.521 -3.067,-3.041 0,-16.473 0,-16.473 0,-16.473 6.646,0 6.646,0 6.646,0 0,8.363 0,8.363 0,8.363 0,2.534 2.044,4.815 4.856,5.068 0.511,2.028 2.3,3.548 4.6,3.548 2.556,0 4.601,-2.027 4.601,-4.561 0,-2.534 -2.045,-4.562 -4.601,-4.562 -2.3,0 -4.089,1.521 -4.6,3.801 -1.789,-0.253 -2.812,-1.52 -2.812,-3.294 0,-7.856 0,-7.856 0,-7.856 1.534,0 10.991,0 12.269,0 7.412,0 13.546,-6.082 13.546,-13.432 -0.511,-7.602 -6.901,-13.685 -14.569,-13.178 z m -45.239,41.308 c -1.534,0 -2.812,-1.267 -2.812,-2.787 0,-1.521 1.023,-3.041 2.812,-3.041 1.533,0 2.811,1.267 2.811,3.041 -0.255,1.52 -1.278,2.787 -2.811,2.787 z m 8.434,8.363 c -1.533,0 -3.067,-1.267 -3.067,-2.787 0,-1.521 1.278,-2.788 3.067,-2.788 1.534,0 2.812,1.267 2.812,2.788 0,1.52 -1.534,2.787 -2.812,2.787 z m 24.281,-5.575 c 1.278,0 2.812,1.267 2.812,2.788 0,1.52 -1.278,2.787 -2.812,2.787 -1.533,0 -3.067,-1.267 -3.067,-2.787 0.256,-1.521 1.534,-2.788 3.067,-2.788 z m 8.435,-8.363 c 1.533,0 2.811,1.267 2.811,2.788 0,1.52 -1.278,2.787 -2.811,2.787 -1.534,0 -2.812,-1.013 -2.812,-2.787 0,-1.521 1.023,-2.788 2.812,-2.788 z m 4.856,-11.151 c -12.268,0 -12.268,0 -12.268,0 0,-11.15 0,-11.15 0,-11.15 0,-0.507 -0.511,-0.761 -1.023,-0.761 -0.511,0 -0.766,0.254 -0.766,0.761 0,11.15 0,11.15 0,11.15 -6.646,0 -6.646,0 -6.646,0 0,-6.589 0,-6.589 0,-6.589 0,-0.506 -0.511,-0.76 -1.022,-0.76 -0.256,0 -0.767,0.254 -0.767,0.76 0,6.589 0,6.589 0,6.589 -5.879,0 -5.879,0 -5.879,0 0,-6.589 0,-6.589 0,-6.589 0,-0.506 -0.255,-0.76 -0.766,-0.76 -0.512,0 -1.023,0.254 -1.023,0.76 0,6.589 0,6.589 0,6.589 -6.389,0 -6.389,0 -6.389,0 0,-11.15 0,-11.15 0,-11.15 0,-0.507 -0.512,-0.761 -1.023,-0.761 -0.511,0 -0.767,0.254 -0.767,0.761 0,11.15 0,11.15 0,11.15 -14.824,0 -14.824,0 -14.824,0 -6.134,-0.253 -10.99,-5.068 -10.99,-11.404 0,-6.082 4.856,-10.897 10.99,-11.15 0.511,0 1.022,-0.761 0.767,-1.268 -0.767,-1.773 -1.022,-4.054 -1.022,-5.828 0,-8.617 7.156,-15.713 15.846,-15.713 6.901,0 13.035,4.309 15.08,10.898 0.256,0.507 1.022,1.013 1.534,0.507 2.044,-1.774 4.6,-2.535 7.412,-2.535 6.901,0 12.524,6.082 11.246,12.925 -0.256,0.76 0.511,1.267 1.022,1.014 7.157,-1.014 13.291,4.308 13.291,11.15 -0.511,6.336 -5.623,11.404 -12.013,11.404 z"
           fill="#85015b"
           fill-rule="evenodd"
           id="path540" />
      </g>
    </g>
  </g>
</svg>
