<svg width="100" height="100" viewBox="0 0 100 100" fill="none" xmlns="http://www.w3.org/2000/svg">
<circle cx="50" cy="50" r="50" fill="#2D9CDB"/>
<g clip-path="url(#clip0)">
<path d="M70.5188 48.7061C70.5183 48.7055 70.5179 48.7048 70.5173 48.7042L61.9447 38.5676C61.3025 37.8083 60.2637 37.8111 59.6245 38.5743C58.9853 39.3373 58.9878 40.5716 59.63 41.331L65.3856 48.1366H30.6406C29.7345 48.1366 29 49.0093 29 50.0859C29 51.1625 29.7345 52.0353 30.6406 52.0353H65.3855L59.6301 58.8408C58.9878 59.6003 58.9854 60.8345 59.6246 61.5976C60.2638 62.3608 61.3027 62.3635 61.9448 61.6042L70.5174 51.4676C70.5179 51.467 70.5183 51.4664 70.5189 51.4658C71.1614 50.7038 71.1594 49.4655 70.5188 48.7061Z" fill="white"/>
</g>
<defs>
<clipPath id="clip0">
<rect width="42" height="42" fill="white" transform="translate(29 29)"/>
</clipPath>
</defs>
</svg>
