<svg xmlns="http://www.w3.org/2000/svg" width="87.169" height="90.713" viewBox="0 0 87.169 90.713">
  <g id="big-data-ico" transform="translate(0 -0.001)">
    <path id="Trazado_108" data-name="Trazado 108" d="M148.266,14.559,123.462.238a1.773,1.773,0,0,0-1.772,0l-24.8,14.321A1.773,1.773,0,0,0,96,16.093V28.87a1.772,1.772,0,0,0,.886,1.534l6.088,3.514-6.088,3.516A1.771,1.771,0,0,0,96,38.969V51.746a1.772,1.772,0,0,0,.886,1.534l6.088,3.514L96.886,60.31A1.772,1.772,0,0,0,96,61.844V74.621a1.772,1.772,0,0,0,.886,1.534l24.8,14.321a1.772,1.772,0,0,0,1.772,0l24.8-14.321a1.772,1.772,0,0,0,.886-1.534V61.844a1.772,1.772,0,0,0-.886-1.534L142.178,56.8l6.088-3.515a1.772,1.772,0,0,0,.886-1.534V38.969a1.771,1.771,0,0,0-.886-1.534l-6.088-3.515,6.088-3.515a1.771,1.771,0,0,0,.886-1.534V16.094a1.773,1.773,0,0,0-.886-1.535Zm-25.69-10.74,21.261,12.275L122.576,28.369,101.315,16.094ZM99.543,19.162,120.8,31.437v8.685L99.543,27.848Zm0,22.875L120.8,54.313V63L99.543,50.723Zm0,22.875L120.8,77.187v8.686L99.543,73.6Zm24.8,20.96V77.188l21.261-12.275V73.6Zm19.489-24.029L122.576,74.119,101.315,61.844l5.2-3L121.69,67.6a1.772,1.772,0,0,0,1.772,0l15.173-8.76ZM124.348,63V54.313l21.261-12.275v8.685Zm19.489-24.029L122.576,51.244,101.315,38.969l5.2-3,15.173,8.76a1.772,1.772,0,0,0,1.772,0l15.173-8.76Zm-19.489,1.154V31.437l21.261-12.275v8.685Zm0,0" transform="translate(-78.991 0)" fill="#e81e79"/>
    <path id="Trazado_109" data-name="Trazado 109" d="M449.772,259.891a1.772,1.772,0,1,0,1.253.519A1.78,1.78,0,0,0,449.772,259.891Zm0,0" transform="translate(-368.626 -213.844)" fill="#e81e79"/>
    <path id="Trazado_110" data-name="Trazado 110" d="M436.048,76.52a6.024,6.024,0,1,0-7.8,5.758V97.85a1.772,1.772,0,0,0,3.543,0V82.278A6.035,6.035,0,0,0,436.048,76.52ZM430.024,79a2.48,2.48,0,1,1,2.48-2.48A2.483,2.483,0,0,1,430.024,79Zm0,0" transform="translate(-348.879 -58.005)" fill="#e81e79"/>
    <path id="Trazado_111" data-name="Trazado 111" d="M25.772,454.871A1.772,1.772,0,0,0,24,456.643v6.578a1.772,1.772,0,0,0,3.543,0v-6.578A1.772,1.772,0,0,0,25.772,454.871Zm0,0" transform="translate(-19.748 -374.279)" fill="#e81e79"/>
    <path id="Trazado_112" data-name="Trazado 112" d="M6.024,265.48a6.024,6.024,0,0,0-1.772,11.781v14.7a1.772,1.772,0,0,0,3.543,0v-14.7A6.024,6.024,0,0,0,6.024,265.48Zm0,8.5A2.48,2.48,0,1,1,8.5,271.5,2.483,2.483,0,0,1,6.024,273.984Zm0,0" transform="translate(0 -218.443)" fill="#e81e79"/>
  </g>
</svg>
