<?xml version="1.0" encoding="UTF-8" standalone="no"?>
<!-- Created with Inkscape (http://www.inkscape.org/) -->

<svg
   width="100"
   height="100"
   viewBox="0 0 26.458333 26.458333"
   version="1.1"
   id="svg185"
   inkscape:version="1.2.2 (732a01da63, 2022-12-09)"
   sodipodi:docname="ESTRATEGIA DIGITAL.svg"
   xmlns:inkscape="http://www.inkscape.org/namespaces/inkscape"
   xmlns:sodipodi="http://sodipodi.sourceforge.net/DTD/sodipodi-0.dtd"
   xmlns="http://www.w3.org/2000/svg"
   xmlns:svg="http://www.w3.org/2000/svg">
  <sodipodi:namedview
     id="namedview187"
     pagecolor="#ffffff"
     bordercolor="#000000"
     borderopacity="0.25"
     inkscape:showpageshadow="2"
     inkscape:pageopacity="0.0"
     inkscape:pagecheckerboard="0"
     inkscape:deskcolor="#d1d1d1"
     inkscape:document-units="mm"
     showgrid="false"
     inkscape:zoom="1.1893044"
     inkscape:cx="53.812968"
     inkscape:cy="321.61657"
     inkscape:window-width="4300"
     inkscape:window-height="1711"
     inkscape:window-x="2391"
     inkscape:window-y="-9"
     inkscape:window-maximized="1"
     inkscape:current-layer="g314" />
  <defs
     id="defs182" />
  <g
     inkscape:label="Capa 1"
     inkscape:groupmode="layer"
     id="layer1">
    <g
       transform="matrix(0.26458333,0,0,0.26458333,-84.878274,-17.952667)"
       id="g314">
      <path
         d="m 385.45775,150.21141 c -3.279,0 -3.279,0 -3.279,0 0,-2.832 0,-2.832 0,-2.832 0,-0.236 -0.469,-0.707 -0.937,-0.707 -8.901,0 -8.901,0 -8.901,0 -3.514,-2.596 -3.514,-2.596 -3.514,-2.596 0,0 -0.234,0 -0.468,0 -7.261,0 -7.261,0 -7.261,0 -0.235,0 -0.703,0.236 -0.703,0.708 0,20.292 0,19.112 0,19.348 0,0 0,0 0,0.236 0.234,0.236 0.468,0.472 0.703,0.472 20.144,0 20.144,0 20.144,0 0.468,0 0.703,-0.472 0.937,-0.708 4.216,-12.741 4.216,-12.741 4.216,-12.741 0,-0.236 0,-0.472 -0.234,-0.708 -0.234,-0.236 -0.469,-0.472 -0.703,-0.472 z m -17.333,-4.483 c 3.279,2.359 3.279,2.359 3.279,2.359 0.234,0.236 0.234,0.236 0.703,0.236 8.432,0 8.432,0 8.432,0 0,1.888 0,1.888 0,1.888 -15.225,0 -15.225,0 -15.225,0 -0.234,0 -0.469,0.236 -0.703,0.472 -2.576,7.786 -2.576,7.786 -2.576,7.786 0,-12.977 0,-12.977 0,-12.977 6.09,0.236 6.09,0.236 6.09,0.236 z m 14.756,10.146 c -2.108,7.078 -2.108,7.078 -2.108,7.078 -18.504,0 -18.504,0 -18.504,0 3.513,-11.089 3.513,-11.089 3.513,-11.089 3.748,0 14.289,0 18.505,0 -0.937,2.359 -0.937,2.359 -0.937,2.359"
         fill="#85015b"
         fill-rule="evenodd"
         id="path306" />
      <path
         d="m 370.18575,124.72841 c 0,11.326 0,11.326 0,11.326 -26.145,0 -26.145,0 -26.145,0 -0.475,0 -0.95,0.471 -0.95,0.943 0,8.731 0,8.731 0,8.731 -2.139,-1.652 -2.139,-1.652 -2.139,-1.652 -0.238,-0.236 -0.238,-0.236 -0.476,-0.236 -7.368,0 -7.368,0 -7.368,0 -0.475,0 -0.713,0.472 -0.713,0.944 0,20.292 0,19.112 0,19.112 0,0.236 0.238,0.472 0.475,0.708 0.238,0 3.566,0 20.679,0 0.475,0 0.713,-0.236 0.95,-0.472 4.041,-12.741 4.041,-12.741 4.041,-12.741 0.238,-0.708 -0.238,-1.18 -0.713,-1.18 -3.328,0 -3.328,0 -3.328,0 0,-2.832 0,-2.832 0,-2.832 0,-0.236 -0.475,-0.707 -0.95,-0.707 -8.557,0 -8.557,0 -8.557,0 0,-8.731 0,-8.731 0,-8.731 25.432,0 25.432,0 25.432,0 0,4.483 0,4.483 0,4.483 0,0.236 0.238,0.708 0.713,0.708 0.475,0 0.951,-0.472 0.951,-0.708 0,-4.483 0,-4.483 0,-4.483 27.095,0 27.095,0 27.095,0 0,8.259 0,8.259 0,8.259 -2.614,-1.888 -2.614,-1.888 -2.614,-1.888 -0.238,-0.236 -0.238,-0.236 -0.713,-0.236 -7.131,0 -7.131,0 -7.131,0 -0.475,0 -0.95,0.472 -0.95,0.944 0,20.056 0,19.112 0,19.348 0,0 0.237,0.236 0.475,0.472 0,0 0.238,0 0.238,0 0.237,0 15.211,0 20.678,0 0.475,0 0.713,-0.236 0.951,-0.472 4.04,-12.741 4.04,-12.741 4.04,-12.741 0.238,-0.944 0,-1.416 -0.713,-1.416 -3.327,0 -3.327,0 -3.327,0 0,-2.832 0,-2.832 0,-2.832 0,-0.236 -0.476,-0.707 -0.713,-0.707 -8.319,0 -8.319,0 -8.319,0 0,-9.675 0,-9.675 0,-9.675 0,-0.236 -0.476,-0.708 -0.713,-0.708 -28.284,0 -28.284,0 -28.284,0 0,-11.561 0,-11.561 0,-11.561 m -0.951,-1.652 c 0,0 0,0 0,0 m -15.925,32.798 c -2.376,6.842 -2.376,6.842 -2.376,6.842 -18.54,0 -18.54,0 -18.54,0 3.566,-10.853 3.566,-10.853 3.566,-10.853 3.803,0 14.498,0 18.776,0 -0.95,2.359 -0.95,2.359 -0.95,2.359 m -3.09,-4.011 c -15.212,0 -15.212,0 -15.212,0 -0.475,0 -0.713,0.236 -0.95,0.472 -2.377,7.786 -2.377,7.786 -2.377,7.786 0,-12.977 0,-12.977 0,-12.977 5.942,0 5.942,0 5.942,0 3.565,2.595 3.327,2.595 3.803,2.595 0,0 0.237,0 0.237,0 8.795,0 8.795,0 8.795,0 0,2.124 0,2.124 0,2.124 z m 37.078,-4.483 c 6.18,0 6.18,0 6.18,0 3.565,2.359 3.565,2.359 3.565,2.359 0,0.236 0.238,0.236 0.475,0.236 8.557,0 8.557,0 8.557,0 0,1.888 0,1.888 0,1.888 -15.212,0 -15.212,0 -15.212,0 -0.475,0 -0.713,0.236 -0.95,0.472 -2.377,7.786 -2.377,7.786 -2.377,7.786 -0.238,-12.741 -0.238,-12.741 -0.238,-12.741 z m 21.154,10.146 c -2.139,7.078 -2.139,7.078 -2.139,7.078 -18.777,0 -18.777,0 -18.777,0 3.565,-11.089 3.565,-11.089 3.565,-11.089 3.803,0 14.499,0 18.777,0 -0.713,2.359 -0.713,2.359 -0.713,2.359"
         fill="#85015b"
         fill-rule="evenodd"
         id="path308" />
      <path
         d="m 401.39475,77.427405 c -0.24,-0.233 -0.48,-0.465 -0.72,-0.465 -4.56,0.465 -4.56,0.465 -4.56,0.465 0.24,-4.42 0.24,-4.42 0.24,-4.42 0,-0.466 0,-0.698 -0.24,-0.698 -0.24,-0.233 -0.48,-0.233 -0.72,0 -5.52,5.351 -5.52,5.351 -5.52,5.351 0,0 -0.24,0.232 -0.24,0.465 -0.24,4.886 -0.24,4.886 -0.24,4.886 -0.96,0.93 -0.96,0.93 -0.96,0.93 -4.32,-4.187 -10.32,-6.514 -16.8,-6.514 -13.2,0 -24.24,10.469005 -24.24,23.498005 0,14.89 13.92,26.057 29.04,23.033 2.16,3.024 5.76,5.118 10.08,5.118 6.48,0 11.76,-5.118 11.76,-11.633 0,-3.257 -1.44,-6.281 -3.6,-8.375 3.12,-8.143 1.2,-17.682 -5.28,-24.429005 0.96,-0.698 0.96,-0.698 0.96,-0.698 5.28,-0.465 5.28,-0.465 5.28,-0.465 0,0 0.24,-0.233 0.24,-0.233 5.52,-5.118 5.52,-5.118 5.52,-5.118 0,-0.233 0,-0.465 0,-0.698 z m -10.32,0.931 c 3.84,-3.723 3.84,-3.723 3.84,-3.723 -0.24,3.257 -0.24,3.257 -0.24,3.257 -0.48,0.233 -3.6,3.49 -4.08,3.723 z m -42.24,22.800005 c 0,-12.331 10.32,-22.335005 22.8,-22.335005 6.24,0 11.52,2.326 15.84,6.049 -3.6,3.490005 -3.6,3.490005 -3.6,3.490005 -3.12,-3.025005 -7.44,-4.886005 -12.24,-4.886005 -9.84,0 -18,7.910005 -18,17.682005 0,10.469 9.84,18.845 20.64,17.216 0.24,1.629 0.72,3.257 1.44,4.653 -14.16,2.327 -26.88,-8.143 -26.88,-21.869 z m 38.64,5.118 c -1.92,-0.233 -3.6,0 -5.52,0.698 2.64,-4.188 2.16,-9.771 -1.44,-13.727 3.36,-3.257 3.36,-3.257 3.36,-3.257 4.32,4.421 5.52,10.702 3.6,16.286 z m -12.96,10.702 c -10.32,1.629 -19.44,-6.049 -19.44,-15.82 0,-9.074 7.44,-16.286005 16.56,-16.286005 4.32,0 8.4,1.628005 11.28,4.420005 -3.36,3.025 -3.36,3.025 -3.36,3.025 -1.92,-1.861 -4.8,-3.025 -7.92,-3.025 -6.72,0 -12,5.351 -12,11.866 0,6.281 5.28,11.632 12,11.632 1.68,0 3.12,-0.465 4.56,-0.93 -0.96,1.628 -1.68,3.257 -1.68,5.118 z m -2.88,-5.584 c -6,0 -10.8,-4.653 -10.8,-10.469 0,-5.816 4.8,-10.469 10.8,-10.469 2.64,0 5.28,1.163 7.2,2.791 -3.36,3.025 -3.36,3.025 -3.36,3.025 -0.96,-0.931 -2.4,-1.396 -3.84,-1.396 -3.36,0 -6.24,2.792 -6.24,6.049 0,3.257 2.88,6.049 6.24,6.049 3.6,0 6.24,-2.559 6.24,-6.049 0,-1.396 -0.48,-2.792 -1.44,-3.722 3.12,-3.025 3.12,-3.025 3.12,-3.025 1.92,1.861 2.88,4.188 2.88,6.747 0,5.816 -4.8,10.469 -10.8,10.469 z m 0,-10.469 c 0.24,0.233 0.72,0.233 0.96,0 3.12,-2.792 3.12,-2.792 3.12,-2.792 0.48,0.698 0.96,1.861 0.96,2.792 0,2.792 -2.4,4.653 -5.04,4.653 -2.64,0 -4.8,-2.094 -4.8,-4.653 0,-2.559 2.16,-4.653 4.8,-4.653 1.2,0 2.16,0.465 3.12,0.931 -3.12,3.024 -3.12,3.024 -3.12,3.024 -0.24,0 -0.24,0.465 0,0.698 z m 25.2,16.751 c 0,5.816 -4.8,10.237 -10.56,10.237 -5.76,0 -10.56,-4.421 -10.56,-10.47 0,0 0,0 0,0 0.24,-5.351 4.8,-10.004 10.56,-10.004 5.76,0 10.56,4.653 10.56,10.237 z m -3.6,-9.306 c -1.2,-0.931 -2.88,-1.629 -4.56,-1.861 2.16,-6.049 0.72,-12.564 -3.84,-17.217 3.6,-3.489 3.6,-3.489 3.6,-3.489 6,6.049 7.68,14.889 4.8,22.567 z m 1.68,-26.057005 c -3.36,0.232 -3.36,0.232 -3.36,0.232 0.96,-0.698 3.12,-3.024 4.08,-3.722 3.36,-0.233 3.36,-0.233 3.36,-0.233 z"
         fill="#85015b"
         fill-rule="evenodd"
         id="path310" />
      <path
         d="m 385.37775,124.07641 -4.983,-5 1.119,-0.962 3.661,3.654 6,-7.692 1.22,0.865 z"
         fill="#85015b"
         fill-rule="evenodd"
         id="path312" />
    </g>
  </g>
</svg>
