<svg xmlns="http://www.w3.org/2000/svg" width="95.798" height="95.798" viewBox="0 0 95.798 95.798">
  <g id="cog-ico" transform="translate(0 0.001)">
    <path id="Trazado_102" data-name="Trazado 102" d="M16.849,74.084a7.811,7.811,0,0,0-3.774.963A44.177,44.177,0,0,1,56.693,4.617,1.871,1.871,0,0,0,57.434.949,48.255,48.255,0,0,0,47.9,0,47.9,47.9,0,0,0,10.307,77.583a7.862,7.862,0,1,0,6.541-3.5Zm2.91,10.769a4.116,4.116,0,1,1,1.206-2.91A4.088,4.088,0,0,1,19.759,84.852Zm0,0" fill="#e81e79"/>
    <path id="Trazado_103" data-name="Trazado 103" d="M246.022,44.266a7.842,7.842,0,1,0-2.766,2.538,44.177,44.177,0,0,1-43.534,70.447,1.871,1.871,0,0,0-.735,3.67,48.288,48.288,0,0,0,9.444.931,47.9,47.9,0,0,0,37.59-77.586Zm-9.45-1.446a4.117,4.117,0,1,1,2.91,1.205A4.089,4.089,0,0,1,236.572,42.82Zm0,0" transform="translate(-160.534 -26.054)" fill="#e81e79"/>
    <path id="Trazado_104" data-name="Trazado 104" d="M100.319,140.235a1.871,1.871,0,0,0,1.871,1.871h11.7a1.871,1.871,0,0,0,1.871-1.871v-3.627a29.3,29.3,0,0,0,7.022-2.91l2.561,2.561a1.87,1.87,0,0,0,2.647,0l8.269-8.275a1.872,1.872,0,0,0,0-2.646l-2.558-2.558a29.3,29.3,0,0,0,2.91-7.022h3.613a1.871,1.871,0,0,0,1.871-1.871v-11.7a1.871,1.871,0,0,0-1.871-1.871h-3.614a29.3,29.3,0,0,0-2.91-7.022l2.544-2.544a1.871,1.871,0,0,0,0-2.647l-8.276-8.269a1.871,1.871,0,0,0-2.646,0l-2.541,2.541a29.3,29.3,0,0,0-7.022-2.91V75.871A1.871,1.871,0,0,0,113.889,74h-11.7a1.871,1.871,0,0,0-1.871,1.871v3.594a29.275,29.275,0,0,0-7.022,2.91l-2.541-2.541a1.872,1.872,0,0,0-2.646,0L79.836,88.1a1.87,1.87,0,0,0,0,2.647l2.544,2.544a29.3,29.3,0,0,0-2.91,7.022H75.862a1.871,1.871,0,0,0-1.871,1.87l-.007,11.7a1.87,1.87,0,0,0,1.871,1.872h3.613a29.3,29.3,0,0,0,2.91,7.022l-2.558,2.558a1.871,1.871,0,0,0,0,2.646l8.269,8.275a1.872,1.872,0,0,0,1.323.549h0a1.871,1.871,0,0,0,1.323-.548L93.3,133.7a29.325,29.325,0,0,0,7.022,2.91Zm-6.288-10.473a1.872,1.872,0,0,0-2.339.248l-2.278,2.278-5.624-5.629,2.276-2.277a1.87,1.87,0,0,0,.248-2.338,25.611,25.611,0,0,1-3.544-8.553,1.872,1.872,0,0,0-1.829-1.478H77.727l0-7.957h3.209a1.871,1.871,0,0,0,1.829-1.478,25.612,25.612,0,0,1,3.544-8.553,1.87,1.87,0,0,0-.249-2.338L83.8,89.427,89.433,83.8l2.259,2.26a1.872,1.872,0,0,0,2.339.248,25.6,25.6,0,0,1,8.553-3.544,1.872,1.872,0,0,0,1.478-1.829v-3.2h7.957v3.195a1.87,1.87,0,0,0,1.478,1.829,25.621,25.621,0,0,1,8.553,3.544,1.87,1.87,0,0,0,2.338-.248l2.26-2.259,5.628,5.624-2.261,2.261a1.871,1.871,0,0,0-.249,2.339,25.628,25.628,0,0,1,3.544,8.553,1.87,1.87,0,0,0,1.829,1.478h3.215v7.957h-3.215a1.872,1.872,0,0,0-1.829,1.478,25.606,25.606,0,0,1-3.544,8.553,1.871,1.871,0,0,0,.249,2.339l2.276,2.276-5.624,5.628-2.278-2.277a1.871,1.871,0,0,0-2.339-.249,25.628,25.628,0,0,1-8.553,3.544,1.871,1.871,0,0,0-1.478,1.829v3.228h-7.957v-3.228a1.872,1.872,0,0,0-1.478-1.829,25.613,25.613,0,0,1-8.553-3.544Zm0,0" transform="translate(-60.142 -60.155)" fill="#e81e79"/>
    <path id="Trazado_105" data-name="Trazado 105" d="M204.292,188.831a15.46,15.46,0,1,0-15.46,15.46A15.478,15.478,0,0,0,204.292,188.831Zm-27.179,0a11.718,11.718,0,1,1,11.718,11.718A11.731,11.731,0,0,1,177.113,188.831Zm0,0" transform="translate(-140.933 -140.933)" fill="#e81e79"/>
    <path id="Trazado_106" data-name="Trazado 106" d="M339.949,21.553A1.873,1.873,0,1,0,338.627,21,1.885,1.885,0,0,0,339.949,21.553Zm0,0" transform="translate(-274.822 -14.477)" fill="#e81e79"/>
    <path id="Trazado_107" data-name="Trazado 107" d="M156.23,474.359a1.872,1.872,0,1,0,1.323.548A1.886,1.886,0,0,0,156.23,474.359Zm0,0" transform="translate(-125.478 -385.604)" fill="#e81e79"/>
  </g>
</svg>
