<?xml version="1.0" encoding="UTF-8" standalone="no"?>
<!-- Created with Inkscape (http://www.inkscape.org/) -->

<svg
   width="100"
   height="100"
   viewBox="0 0 26.458333 26.458333"
   version="1.1"
   id="svg185"
   inkscape:version="1.2.2 (732a01da63, 2022-12-09)"
   sodipodi:docname="contonuidad_operacional.svg"
   xmlns:inkscape="http://www.inkscape.org/namespaces/inkscape"
   xmlns:sodipodi="http://sodipodi.sourceforge.net/DTD/sodipodi-0.dtd"
   xmlns="http://www.w3.org/2000/svg"
   xmlns:svg="http://www.w3.org/2000/svg">
  <sodipodi:namedview
     id="namedview187"
     pagecolor="#ffffff"
     bordercolor="#000000"
     borderopacity="0.25"
     inkscape:showpageshadow="2"
     inkscape:pageopacity="0.0"
     inkscape:pagecheckerboard="0"
     inkscape:deskcolor="#d1d1d1"
     inkscape:document-units="mm"
     showgrid="false"
     inkscape:zoom="1.1893044"
     inkscape:cx="53.812968"
     inkscape:cy="321.61657"
     inkscape:window-width="4300"
     inkscape:window-height="1711"
     inkscape:window-x="2391"
     inkscape:window-y="-9"
     inkscape:window-maximized="1"
     inkscape:current-layer="g314" />
  <defs
     id="defs182" />
  <g
     inkscape:label="Capa 1"
     inkscape:groupmode="layer"
     id="layer1">
    <g
       transform="matrix(0.26458333,0,0,0.26458333,-84.878274,-17.952667)"
       id="g314">
      <g
         transform="translate(-194.43222,-304.03857)"
         id="g747">
        <path
           d="m 548,424.569 c 0,16.058 0,16.058 0,16.058 0,3.314 2.845,6.373 6.207,6.373 17.327,0 17.327,0 17.327,0 3.621,0 6.466,-3.059 6.466,-6.373 0,-16.058 0,-16.058 0,-16.058 0,-0.255 -0.517,-0.765 -1.034,-0.765 -2.845,0 -2.845,0 -2.845,0 0,-4.588 0,-4.588 0,-4.588 0,-6.118 -4.914,-11.216 -11.121,-11.216 -6.207,0 -11.379,5.098 -11.379,11.216 0,4.588 0,4.588 0,4.588 -2.845,0 -2.845,0 -2.845,0 -0.517,0 -0.776,0.51 -0.776,0.765 z m 8.276,-0.765 c -2.845,0 -2.845,0 -2.845,0 0,-4.588 0,-4.588 0,-4.588 0,-5.098 4.138,-9.432 9.31,-9.432 5.173,0 9.569,4.334 9.569,9.432 -0.258,0 -0.258,0 -0.258,0 0,4.588 0,4.588 0,4.588 -2.845,0 -2.845,0 -2.845,0 m -1.81,0 c -9.311,0 -9.311,0 -9.311,0 m 17.845,1.784 c 0,5.608 0,5.608 0,5.608 -26.121,0 -26.121,0 -26.121,0 0,-5.608 0,-5.608 0,-5.608 5.173,0 20.949,0 26.121,0 z M 563,432.98 c 1.552,0 2.845,1.275 2.845,2.804 0,1.53 -1.293,2.804 -2.845,2.804 -1.81,0 -2.845,-1.274 -2.845,-2.804 0,-1.529 1.035,-2.804 2.845,-2.804 z m 8.534,11.981 c -7.758,0 -7.758,0 -7.758,0 0,-4.843 0,-4.843 0,-4.843 3.621,-0.51 4.914,-4.589 2.845,-7.138 9.31,0 9.31,0 9.31,0 0,7.647 0,7.647 0,7.647 0,2.295 -1.81,4.589 -4.397,4.334 z m -21.724,-4.079 c 0,-7.647 0,-7.647 0,-7.647 9.311,0 9.311,0 9.311,0 -2.069,2.549 -0.518,6.373 2.845,7.138 0,4.843 0,4.843 0,4.843 -7.759,0 -7.759,0 -7.759,0 -2.328,0 -4.397,-2.294 -4.397,-4.334 z"
           fill="#85015b"
           fill-rule="evenodd"
           id="path737" />
        <path
           d="m 579,391 c 0,-1.105 0.895,-2 2,-2 1.105,0 2,0.895 2,2 0,1.105 -0.895,2 -2,2 -1.105,0 -2,-0.895 -2,-2 z"
           fill="#85015b"
           fill-rule="evenodd"
           id="path739" />
        <path
           d="m 585,391 c 0,-1.105 0.895,-2 2,-2 1.105,0 2,0.895 2,2 0,1.105 -0.895,2 -2,2 -1.105,0 -2,-0.895 -2,-2 z"
           fill="#85015b"
           fill-rule="evenodd"
           id="path741" />
        <path
           d="m 591,391 c 0,-1.105 0.895,-2 2,-2 1.105,0 2,0.895 2,2 0,1.105 -0.895,2 -2,2 -1.105,0 -2,-0.895 -2,-2 z"
           fill="#85015b"
           fill-rule="evenodd"
           id="path743" />
        <path
           d="m 527,391.062 c 0,60.876 0,60.876 0,60.876 0,3.283 2.543,6.062 5.849,6.062 62.302,0 62.302,0 62.302,0 3.306,0 5.849,-2.779 5.849,-6.062 0,-60.876 0,-60.876 0,-60.876 0,-3.283 -2.543,-6.062 -5.849,-6.062 -62.302,0 -62.302,0 -62.302,0 -3.306,0 -5.849,2.779 -5.849,6.062 z m 1.78,-0.252 c 0.254,-2.274 2.034,-3.789 4.069,-3.789 36.873,0 36.873,0 36.873,0 0,3.789 0,3.789 0,3.789 0,1.768 0,1.768 0,1.768 0,3.536 0,3.536 0,3.536 -40.942,0 -40.942,0 -40.942,0 0,-3.536 0,-3.536 0,-3.536 z m 70.44,0.252 c 0,5.305 0,5.305 0,5.305 -27.718,0 -27.718,0 -27.718,0 0,-9.346 0,-9.346 0,-9.346 23.649,0 23.649,0 23.649,0 2.289,0 4.069,1.768 4.069,4.041 z m -70.44,60.876 c 0,-53.803 0,-53.803 0,-53.803 70.44,0 70.44,0 70.44,0 0,53.803 0,53.803 0,53.803 0,2.273 -1.78,4.041 -4.069,4.041 -62.302,0 -62.302,0 -62.302,0 -2.289,0 -4.069,-1.768 -4.069,-4.041 z"
           fill="#85015b"
           fill-rule="evenodd"
           id="path745" />
      </g>
    </g>
  </g>
</svg>
