<?xml version="1.0" encoding="UTF-8" standalone="no"?>
<!-- Created with Inkscape (http://www.inkscape.org/) -->

<svg
   width="100"
   height="100"
   viewBox="0 0 26.458333 26.458333"
   version="1.1"
   id="svg185"
   inkscape:version="1.2.2 (732a01da63, 2022-12-09)"
   sodipodi:docname="eficiencia opp.svg"
   xmlns:inkscape="http://www.inkscape.org/namespaces/inkscape"
   xmlns:sodipodi="http://sodipodi.sourceforge.net/DTD/sodipodi-0.dtd"
   xmlns="http://www.w3.org/2000/svg"
   xmlns:svg="http://www.w3.org/2000/svg">
  <sodipodi:namedview
     id="namedview187"
     pagecolor="#ffffff"
     bordercolor="#000000"
     borderopacity="0.25"
     inkscape:showpageshadow="2"
     inkscape:pageopacity="0.0"
     inkscape:pagecheckerboard="0"
     inkscape:deskcolor="#d1d1d1"
     inkscape:document-units="mm"
     showgrid="false"
     inkscape:zoom="1.1893044"
     inkscape:cx="53.812968"
     inkscape:cy="321.61657"
     inkscape:window-width="4300"
     inkscape:window-height="1711"
     inkscape:window-x="2391"
     inkscape:window-y="-9"
     inkscape:window-maximized="1"
     inkscape:current-layer="g314" />
  <defs
     id="defs182" />
  <g
     inkscape:label="Capa 1"
     inkscape:groupmode="layer"
     id="layer1">
    <g
       transform="matrix(0.26458333,0,0,0.26458333,-84.878274,-17.952667)"
       id="g314">
      <g
         transform="matrix(0.76219016,0,0,0.76219016,-225.15809,-199.91213)"
         id="g780">
        <path
           d="m 813.873,433 c -1.018,0 -1.782,0 -2.8,0.519 -7.637,3.374 -7.637,3.374 -7.637,3.374 -5.6,2.596 -11.709,2.596 -17.309,0 -0.763,-0.259 -4.582,-2.595 -10.182,-2.595 -8.654,0 -16.29,5.191 -19.854,13.236 -4.836,11.68 -4.836,11.68 -4.836,11.68 -0.255,0.259 0,1.038 0.509,1.038 14.509,6.748 14.509,6.748 14.509,6.748 0.509,0 1.018,0 1.272,-0.519 2.546,-5.97 3.055,-6.748 3.055,-6.748 1.273,-3.115 1.273,-3.115 1.273,-3.115 1.272,-2.855 4.327,-4.152 6.872,-2.855 6.11,2.855 12.728,2.855 18.837,0 18.582,-8.565 18.582,-8.565 18.582,-8.565 3.309,-1.557 4.836,-5.969 2.545,-9.343 -0.764,-1.817 -2.8,-2.855 -4.836,-2.855 z m -47.6,31.924 c -12.982,-5.71 -12.982,-5.71 -12.982,-5.71 2.291,-5.451 2.291,-5.451 2.291,-5.451 12.982,5.97 12.982,5.97 12.982,5.97 z m 49.382,-21.542 c -18.582,8.565 -18.582,8.565 -18.582,8.565 -5.6,2.595 -11.709,2.595 -17.309,0 -3.564,-1.558 -7.891,0 -9.419,3.893 -1.018,2.076 -1.018,2.076 -1.018,2.076 -12.982,-5.969 -12.982,-5.969 -12.982,-5.969 1.782,-3.634 1.782,-3.634 1.782,-3.634 4.328,-10.122 16.037,-14.794 25.964,-10.382 1.018,0.519 4.836,2.855 10.691,2.855 3.309,0 6.363,-0.778 9.673,-2.076 7.636,-3.634 7.636,-3.634 7.636,-3.634 0.509,-0.259 1.273,-0.259 1.782,-0.259 1.527,0 2.8,0.778 3.563,2.076 1.528,2.336 0.509,5.451 -1.781,6.489 z"
           fill="#85015b"
           fill-rule="evenodd"
           id="path772" />
        <path
           d="m 787.127,368 c -0.254,0 -0.254,0 -0.254,0 C 774.42,368.253 764,378.376 764,391.029 c 0,7.338 3.558,14.171 9.149,18.22 3.304,2.278 5.083,6.073 5.083,9.869 0,0.253 0,0.253 0,0.253 0,0.253 0.254,0.507 0.508,0.507 0.763,0 0.763,0 0.763,0 0,1.518 0,2.783 0,4.302 0,1.265 1.016,2.277 2.541,2.277 0.763,0 0.763,0 0.763,0 0,0.759 0,0.759 0,0.759 0,1.519 1.27,2.784 2.795,2.784 2.796,0 2.796,0 2.796,0 1.525,0 2.541,-1.265 2.541,-2.784 0,-0.759 0,-0.759 0,-0.759 1.017,0 1.017,0 1.017,0 1.271,0 2.541,-1.012 2.541,-2.277 0,-1.519 0,-2.784 0,-4.302 0.508,0 0.508,0 0.508,0 0.255,0 0.763,-0.254 0.763,-0.507 0,-0.253 0,-0.253 0,-0.253 0,-3.796 1.779,-7.591 4.829,-9.869 5.591,-4.049 9.149,-10.882 9.149,-18.22 C 810,378.376 799.834,368 787.127,368 Z m 2.542,59.216 c 0,0.76 -0.509,1.519 -1.271,1.519 -2.796,0 -2.796,0 -2.796,0 -0.762,0 -1.271,-0.759 -1.271,-1.519 0,-0.759 0,-0.759 0,-0.759 5.338,0 5.338,0 5.338,0 z m 3.558,-3.036 c 0,0.506 -0.509,1.012 -1.271,1.012 -4.321,0 -5.591,0 -9.658,0 -0.762,0 -1.27,-0.506 -1.27,-1.012 0,-1.013 0,-1.013 0,-1.013 12.199,0 12.199,0 12.199,0 z m 0,-2.278 c -12.199,0 -12.199,0 -12.199,0 0,-2.024 0,-2.024 0,-2.024 12.199,0 12.199,0 12.199,0 z m 6.607,-13.665 c -3.049,2.53 -5.337,6.326 -5.337,10.375 -6.607,0 -13.215,0 -14.994,0 0,-4.049 -2.033,-7.845 -5.337,-10.375 -5.591,-4.049 -8.895,-10.376 -8.641,-17.208 0,-11.894 9.403,-21.511 21.348,-21.511 0.254,0 0.254,0 0.254,0 11.691,0 21.602,9.617 21.602,21.511 0,6.579 -3.304,13.159 -8.895,17.208 z"
           fill="#85015b"
           fill-rule="evenodd"
           id="path774" />
        <path
           d="m 793.652,406.448 c 1.826,-1.034 1.826,-1.034 1.826,-1.034 0.261,-0.259 0.261,-0.776 0.261,-1.035 -1.304,-3.103 -1.304,-3.103 -1.304,-3.103 0.261,-0.259 0.782,-0.517 1.043,-1.035 3.131,1.293 3.131,1.293 3.131,1.293 0.261,0.259 0.782,0 1.043,-0.258 1.044,-1.81 1.044,-1.81 1.044,-1.81 0.261,-0.518 0,-0.776 -0.261,-1.035 -2.87,-2.069 -2.87,-2.069 -2.87,-2.069 0.261,-0.517 0.261,-0.776 0.261,-1.293 3.391,-0.517 3.391,-0.517 3.391,-0.517 0.522,0 0.783,-0.259 0.783,-0.776 0,-1.81 0,-1.81 0,-1.81 0,-0.518 -0.261,-0.776 -0.783,-0.776 -3.391,-0.518 -3.391,-0.518 -3.391,-0.518 0,-0.517 0,-0.775 -0.261,-1.293 2.87,-2.069 2.87,-2.069 2.87,-2.069 0.261,-0.258 0.261,-0.517 0.261,-1.034 -1.044,-1.81 -1.044,-1.81 -1.044,-1.81 -0.261,-0.259 -0.782,-0.518 -1.043,-0.259 -3.131,1.293 -3.131,1.293 -3.131,1.293 -0.261,-0.259 -0.521,-0.776 -1.043,-1.034 1.304,-3.104 1.304,-3.104 1.304,-3.104 0,-0.259 0,-0.776 -0.261,-1.034 -1.826,-1.035 -1.826,-1.035 -1.826,-1.035 -0.522,-0.259 -0.782,0 -1.043,0.259 -2.087,2.586 -2.087,2.586 -2.087,2.586 -0.522,0 -0.783,-0.259 -1.305,-0.259 -0.521,-3.362 -0.521,-3.362 -0.521,-3.362 0,-0.258 -0.261,-0.517 -0.783,-0.517 -2.087,0 -2.087,0 -2.087,0 -0.261,0 -0.783,0.259 -0.783,0.517 -0.26,3.362 -0.26,3.362 -0.26,3.362 -0.522,0.259 -0.783,0.259 -1.305,0.259 -2.087,-2.586 -2.087,-2.586 -2.087,-2.586 -0.261,-0.259 -0.782,-0.259 -1.043,-0.259 -1.826,1.293 -1.826,1.293 -1.826,1.293 -0.522,0.259 -0.522,0.517 -0.522,1.035 1.304,3.103 1.304,3.103 1.304,3.103 -0.261,0.259 -0.521,0.517 -0.782,0.776 -3.131,-1.293 -3.131,-1.293 -3.131,-1.293 -0.521,0 -0.782,0 -1.043,0.517 -1.044,1.81 -1.044,1.81 -1.044,1.81 -0.261,0.259 0,0.518 0.261,0.776 2.609,2.328 2.609,2.328 2.609,2.328 0,0.259 -0.261,0.776 -0.261,1.034 -3.391,0.518 -3.391,0.518 -3.391,0.518 -0.261,0 -0.522,0.517 -0.522,0.776 0,2.068 0,2.068 0,2.068 0,0.259 0.261,0.776 0.522,0.776 3.391,0.518 3.391,0.518 3.391,0.518 0.261,0.258 0.261,0.775 0.261,1.034 -2.609,2.069 -2.609,2.069 -2.609,2.069 -0.261,0.259 -0.261,0.776 -0.261,1.035 1.044,1.81 1.044,1.81 1.044,1.81 0.261,0.517 0.522,0.517 1.043,0.517 3.131,-1.293 3.131,-1.293 3.131,-1.293 0.261,0.259 0.521,0.517 1.043,0.776 -1.304,3.103 -1.304,3.103 -1.304,3.103 -0.261,0.518 0,0.776 0.261,1.035 1.826,1.034 1.826,1.034 1.826,1.034 0.261,0.259 0.782,0.259 1.043,-0.258 2.087,-2.587 2.087,-2.587 2.087,-2.587 0.522,0 0.783,0.259 1.305,0.259 0.26,3.362 0.26,3.362 0.26,3.362 0,0.517 0.522,0.776 0.783,0.776 2.087,0 2.087,0 2.087,0 0.522,0 0.783,-0.259 0.783,-0.776 0.521,-3.362 0.521,-3.362 0.521,-3.362 0.522,-0.259 0.783,-0.259 1.305,-0.259 2.087,2.587 2.087,2.587 2.087,2.587 0.261,0.258 0.521,0.517 1.043,0.258 z m -2.348,-4.396 c -0.261,-0.259 -0.782,-0.259 -0.782,-0.259 -0.783,0.259 -1.305,0.517 -2.087,0.517 -0.522,0 -0.783,0.518 -0.783,0.518 -0.522,3.362 -0.522,3.362 -0.522,3.362 -0.521,0 -0.521,0 -0.521,0 -0.522,-3.362 -0.522,-3.362 -0.522,-3.362 0,-0.259 -0.522,-0.518 -0.783,-0.518 -0.521,0 -1.304,-0.258 -1.826,-0.517 -0.521,0 -0.782,0 -1.043,0.259 -2.087,2.586 -2.087,2.586 -2.087,2.586 -0.522,-0.517 -0.522,-0.517 -0.522,-0.517 1.044,-2.845 1.044,-2.845 1.044,-2.845 0.26,-0.517 0,-0.776 -0.261,-1.035 -0.522,-0.258 -0.783,-0.775 -1.305,-1.293 -0.261,-0.258 -0.521,-0.517 -0.782,-0.258 -3.131,1.293 -3.131,1.293 -3.131,1.293 -0.521,-0.776 -0.521,-0.776 -0.521,-0.776 2.608,-1.81 2.608,-1.81 2.608,-1.81 0.261,-0.259 0.522,-0.776 0.261,-1.035 -0.261,-0.517 -0.261,-1.293 -0.522,-2.069 0,-0.259 -0.26,-0.517 -0.521,-0.517 -3.392,-0.517 -3.392,-0.517 -3.392,-0.517 0,-0.776 0,-0.776 0,-0.776 3.392,-0.259 3.392,-0.259 3.392,-0.259 0.261,0 0.521,-0.517 0.521,-0.776 0.261,-0.517 0.261,-1.293 0.522,-2.069 0.261,-0.258 0,-0.517 -0.261,-0.776 -2.608,-2.069 -2.608,-2.069 -2.608,-2.069 0.521,-0.517 0.521,-0.517 0.521,-0.517 3.131,1.035 3.131,1.035 3.131,1.035 0.261,0 0.521,0 0.782,-0.259 0.522,-0.517 0.783,-1.034 1.305,-1.293 0.261,-0.259 0.521,-0.776 0.261,-1.034 -1.044,-2.845 -1.044,-2.845 -1.044,-2.845 0.522,-0.518 0.522,-0.518 0.522,-0.518 2.087,2.587 2.087,2.587 2.087,2.587 0.261,0.258 0.782,0.258 1.043,0.258 0.522,-0.258 1.305,-0.517 1.826,-0.517 0.522,0 0.783,-0.517 0.783,-0.776 0.522,-3.103 0.522,-3.103 0.522,-3.103 0.521,0 0.521,0 0.521,0 0.522,3.103 0.522,3.103 0.522,3.103 0,0.517 0.522,0.776 0.783,0.776 0.522,0 1.304,0.259 2.087,0.517 0.261,0 0.521,0 0.782,-0.258 2.087,-2.587 2.087,-2.587 2.087,-2.587 0.522,0.518 0.522,0.518 0.522,0.518 -1.304,2.845 -1.304,2.845 -1.304,2.845 0,0.517 0,0.775 0.261,1.034 0.521,0.259 1.043,0.776 1.565,1.293 0.261,0.259 0.522,0.259 0.782,0.259 3.131,-1.035 3.131,-1.035 3.131,-1.035 0.261,0.517 0.261,0.517 0.261,0.517 -2.609,2.069 -2.609,2.069 -2.609,2.069 -0.261,0.259 -0.261,0.518 -0.261,0.776 0.261,0.776 0.522,1.293 0.522,2.069 0,0.518 0.522,0.776 0.782,0.776 3.392,0.259 3.392,0.259 3.392,0.259 0,0.776 0,0.776 0,0.776 -3.392,0.517 -3.392,0.517 -3.392,0.517 -0.521,0 -0.782,0.258 -0.782,0.517 0,0.776 -0.261,1.552 -0.522,2.069 0,0.517 0,0.776 0.261,1.035 2.609,1.81 2.609,1.81 2.609,1.81 -0.261,0.776 -0.261,0.776 -0.261,0.776 -3.131,-1.293 -3.131,-1.293 -3.131,-1.293 -0.26,0 -0.521,0 -0.782,0.258 -0.522,0.518 -1.044,1.035 -1.565,1.552 -0.261,0.259 -0.261,0.517 -0.261,0.776 1.304,3.103 1.304,3.103 1.304,3.103 -0.783,0.259 -0.783,0.259 -0.783,0.259 z"
           fill="#85015b"
           fill-rule="evenodd"
           id="path776" />
        <path
           d="m 786.5,386 c -3.5,0 -6.5,2.804 -6.5,6.373 0,3.823 3,6.627 6.5,6.627 3.5,0 6.5,-2.804 6.5,-6.627 0,-3.569 -3,-6.373 -6.5,-6.373 z m 0,11.725 c -2.75,0 -5,-2.294 -5,-5.098 0,-2.803 2.25,-5.098 5,-5.098 3,0 5,2.295 5,5.098 0,2.804 -2.25,5.098 -5,5.098 z"
           fill="#85015b"
           fill-rule="evenodd"
           id="path778" />
      </g>
    </g>
  </g>
</svg>
