<svg id="Grupo_24" data-name="Grupo 24" xmlns="http://www.w3.org/2000/svg" width="35.191" height="22.874" viewBox="0 0 35.191 22.874">
  <path id="Trazado_14" data-name="Trazado 14" d="M1142.348,711.7a2.652,2.652,0,0,0-.977.192l15.093,13.115a1.218,1.218,0,0,0,1.705,0l15.067-13.115a2.652,2.652,0,0,0-.977-.192Zm-2.612,2.269a2.692,2.692,0,0,0-.028.37v17.6a2.666,2.666,0,0,0,.207,1.017l10.448-9.76-10.626-9.224Zm35.135,0-10.6,9.224,10.42,9.774a2.661,2.661,0,0,0,.205-1.031v-17.6a2.674,2.674,0,0,0-.027-.37Zm-12.606,10.956-2.363,2.062a3.962,3.962,0,0,1-5.168,0l-2.365-2.049-10.3,9.622c.089.008.183.014.276.014h29.911c.087,0,.177-.005.262-.014l-10.256-9.636Z" transform="translate(-1139.707 -711.7)" fill="#f3f3f3"/>
</svg>
