<?xml version="1.0" encoding="UTF-8" standalone="no"?>
<!-- Created with Inkscape (http://www.inkscape.org/) -->

<svg
   width="100"
   height="100"
   viewBox="0 0 26.458333 26.458333"
   version="1.1"
   id="svg185"
   inkscape:version="1.2.2 (732a01da63, 2022-12-09)"
   sodipodi:docname="ia_analitica.svg"
   xmlns:inkscape="http://www.inkscape.org/namespaces/inkscape"
   xmlns:sodipodi="http://sodipodi.sourceforge.net/DTD/sodipodi-0.dtd"
   xmlns="http://www.w3.org/2000/svg"
   xmlns:svg="http://www.w3.org/2000/svg">
  <sodipodi:namedview
     id="namedview187"
     pagecolor="#ffffff"
     bordercolor="#000000"
     borderopacity="0.25"
     inkscape:showpageshadow="2"
     inkscape:pageopacity="0.0"
     inkscape:pagecheckerboard="0"
     inkscape:deskcolor="#d1d1d1"
     inkscape:document-units="mm"
     showgrid="false"
     inkscape:zoom="1.1893044"
     inkscape:cx="53.812968"
     inkscape:cy="321.61657"
     inkscape:window-width="4300"
     inkscape:window-height="1711"
     inkscape:window-x="2391"
     inkscape:window-y="-9"
     inkscape:window-maximized="1"
     inkscape:current-layer="g314" />
  <defs
     id="defs182" />
  <g
     inkscape:label="Capa 1"
     inkscape:groupmode="layer"
     id="layer1">
    <g
       transform="matrix(0.26458333,0,0,0.26458333,-84.878274,-17.952667)"
       id="g314">
      <g
         transform="matrix(0.81334405,0,0,0.81113378,-538.14249,-44.936289)"
         id="g652">
        <path
           d="m 1127,191.274 c 0,1.983 0,1.983 0,1.983 0,0.495 0.49,0.743 0.73,0.743 6.85,0 25.44,0 32.29,0 0.49,0 0.98,-0.248 0.98,-0.743 0,-0.496 -0.73,-0.992 -1.22,-0.992 -0.74,0 -0.74,0 -0.74,0 0,-18.088 0,-18.088 0,-18.088 0,-0.496 -0.49,-0.743 -0.98,-0.743 -4.4,0 -4.4,0 -4.4,0 -0.49,0 -0.98,0.247 -0.98,0.743 0,1.982 0,1.982 0,1.982 -3.42,0 -3.42,0 -3.42,0 -0.49,0 -0.98,0.496 -0.98,0.744 0,3.716 0,3.716 0,3.716 -2.69,0 -2.69,0 -2.69,0 0,-4.46 0,-4.46 0,-4.46 0,-0.495 -0.49,-0.991 -0.98,-0.991 -3.42,0 -3.42,0 -3.42,0 0,-2.726 0,-2.726 0,-2.726 0,-0.495 -0.49,-0.743 -0.98,-0.743 -4.4,0 -4.4,0 -4.4,0 -0.49,0 -0.74,0.248 -0.74,0.743 0,5.452 0,5.452 0,5.452 -3.67,0 -3.67,0 -3.67,0 -0.49,0 -0.98,0.495 -0.98,0.991 0,13.628 0,13.628 0,13.628 -1.71,0 -1.71,0 -1.71,0 0,-25.522 0,-25.522 0,-25.522 0,-0.495 -0.49,-0.991 -0.98,-0.991 -0.24,0 -0.73,0.496 -0.73,0.991 0,0.744 0,0.744 0,0.744 z m 0,-3.469 c 0,1.735 0,1.735 0,1.735 m 0,-4.213 c 0,0.744 0,0.744 0,0.744 m 0,-3.469 c 0,0.991 0,0.991 0,0.991 m 0,-3.469 c 0,0.743 0,0.743 0,0.743 m 0,-3.469 c 0,0.991 0,0.991 0,0.991 m 0,-3.716 c 0,0.991 0,0.991 0,0.991 m 0,-3.469 c 0,0.743 0,0.743 0,0.743 m 0,-3.469 c 0,0.991 0,0.991 0,0.991 m 4.89,9.168 c 2.69,0 2.69,0 2.69,0 0,12.637 0,12.637 0,12.637 -2.69,0 -2.69,0 -2.69,0 z m 4.4,-6.194 c 2.94,0 2.94,0 2.94,0 0,3.964 0,15.115 0,18.831 -2.94,0 -2.94,0 -2.94,0 0,-1.734 0,-17.097 0,-18.831 z m 4.65,3.469 c 2.69,0 2.69,0 2.69,0 0,1.734 0,13.628 0,15.362 -2.69,0 -2.69,0 -2.69,0 z m 4.41,5.451 c 2.93,0 2.93,0 2.93,0 0,9.911 0,9.911 0,9.911 -2.93,0 -2.93,0 -2.93,0 z m 4.64,-4.46 c 2.69,0 2.69,0 2.69,0 0,14.371 0,14.371 0,14.371 -2.69,0 -2.69,0 -2.69,0 0,-1.238 0,-12.637 0,-14.371 z m 4.41,14.371 c 0,-3.469 0,-14.619 0,-17.097 2.69,0 2.69,0 2.69,0 0,17.097 0,17.097 0,17.097 z"
           fill="#85015b"
           fill-rule="evenodd"
           id="path582" />
        <path
           d="m 1131.9,171.804 c 6.18,-5.021 6.18,-5.021 6.18,-5.021 7.37,5.739 7.37,5.739 7.37,5.739 0.24,0.478 0.71,0.478 0.95,0 12.36,-8.609 12.36,-8.609 12.36,-8.609 0.24,-0.478 0.24,-0.956 0,-1.435 -0.24,-0.478 -0.71,-0.478 -1.19,0 -11.64,8.37 -11.64,8.37 -11.64,8.37 -7.37,-5.739 -7.37,-5.739 -7.37,-5.739 -0.48,-0.239 -0.72,-0.239 -1.19,0 -6.89,5.261 -6.89,5.261 -6.89,5.261 -0.48,0.239 -0.48,0.956 -0.24,1.195 0.71,0.478 1.19,0.478 1.66,0.239 z"
           fill="#85015b"
           fill-rule="evenodd"
           id="path584" />
        <path
           d="m 1118.92,233 c -26.84,0 -26.84,0 -26.84,0 -3.91,0 -7.08,-3.154 -7.08,-7.278 0,-26.686 0,-26.686 0,-26.686 0,-3.64 3.17,-7.036 7.08,-7.036 26.84,0 26.84,0 26.84,0 3.91,0 7.08,3.154 7.08,7.036 0,26.686 0,26.686 0,26.686 0,4.124 -3.17,7.278 -7.08,7.278 z m -26.84,-39.059 c -2.93,0 -5.37,2.426 -5.37,5.095 0,26.686 0,26.686 0,26.686 0,2.911 2.44,5.337 5.37,5.337 26.84,0 26.84,0 26.84,0 2.93,0 5.37,-2.426 5.37,-5.337 0,-26.686 0,-26.686 0,-26.686 0,-2.669 -2.44,-5.095 -5.37,-5.095 z"
           fill="#85015b"
           fill-rule="evenodd"
           id="path586" />
        <path
           d="m 1095.67,190 c -0.23,0 -0.67,-0.485 -0.67,-0.727 0,-3.637 0,-3.637 0,-3.637 0,-0.242 0,-0.484 0.22,-0.484 2.22,-2.425 2.22,-2.425 2.22,-2.425 0,-7.757 0,-7.757 0,-7.757 0,-0.485 0.45,-0.97 0.67,-0.97 0.45,0 0.89,0.485 0.89,0.97 0,8 0,8 0,8 0,0.242 -0.22,0.485 -0.22,0.485 -2.22,2.424 -2.22,2.424 -2.22,2.424 0,3.151 0,3.151 0,3.151 0,0.485 -0.23,0.97 -0.89,0.97 z"
           fill="#85015b"
           fill-rule="evenodd"
           id="path588" />
        <path
           d="m 1113.91,190 c -0.46,0 -0.91,-0.468 -0.91,-0.702 0,-3.043 0,-3.043 0,-3.043 0,-0.468 0.23,-0.702 0.45,-0.702 2.96,-2.34 2.96,-2.34 2.96,-2.34 0,-3.511 0,-3.511 0,-3.511 0,-0.468 0.45,-0.702 0.91,-0.702 0.45,0 0.68,0.234 0.68,0.702 0,3.979 0,3.979 0,3.979 0,0.234 0,0.468 -0.23,0.468 -3.18,2.34 -3.18,2.34 -3.18,2.34 0,2.809 0,2.809 0,2.809 0.23,0.234 -0.23,0.702 -0.68,0.702 z"
           fill="#85015b"
           fill-rule="evenodd"
           id="path590" />
        <path
           d="m 1108.14,190 c -0.57,0 -1.14,-0.476 -1.14,-0.714 0,-8.334 0,-8.334 0,-8.334 0,-0.476 0.57,-0.952 1.14,-0.952 0.57,0 0.86,0.476 0.86,0.952 0,8.334 0,8.334 0,8.334 0,0.238 -0.29,0.714 -0.86,0.714 z"
           fill="#85015b"
           fill-rule="evenodd"
           id="path592" />
        <path
           d="m 1108,181 c -1.64,0 -3,-1.136 -3,-2.5 0,-1.591 1.09,-2.5 3,-2.5 1.64,0 3,0.909 3,2.5 0,1.364 -1.36,2.5 -3,2.5 z m 0,-3.409 c -0.55,0 -1.09,0.454 -1.09,0.909 0,0.455 0.54,0.682 1.09,0.682 0.55,0 0.82,-0.227 0.82,-0.682 0,-0.455 -0.27,-0.909 -0.82,-0.909 z"
           fill="#85015b"
           fill-rule="evenodd"
           id="path594" />
        <path
           d="m 1098.39,176 c -1.09,0 -2.39,-1.304 -2.39,-3.13 0,-1.566 1.09,-2.87 2.39,-2.87 1.52,0 2.61,1.304 2.61,2.87 0,1.826 -1.3,3.13 -2.61,3.13 z m 0,-3.913 c -0.22,0 -0.65,0.522 -0.65,0.783 0,0.521 0.43,1.043 0.65,1.043 0.44,0 0.87,-0.522 0.87,-1.043 0,-0.261 -0.22,-0.783 -0.87,-0.783 z"
           fill="#85015b"
           fill-rule="evenodd"
           id="path596" />
        <path
           d="m 1103,190 c -0.5,0 -1,-0.471 -1,-0.706 0,-6.588 0,-6.588 0,-6.588 0,-0.471 0.5,-0.706 1,-0.706 0.25,0 0.75,0.235 0.75,0.706 0,6.588 0,6.588 0,6.588 0.25,0.235 -0.25,0.706 -0.75,0.706 z"
           fill="#85015b"
           fill-rule="evenodd"
           id="path598" />
        <path
           d="m 1117.02,194 c -24.29,0 -24.29,0 -24.29,0 -1.49,0 -2.73,-1.304 -2.73,-2.87 0,-1.826 0.99,-3.13 2.73,-3.13 24.54,0 24.54,0 24.54,0 1.49,0 2.73,1.304 2.73,3.13 0,1.566 -1.24,2.87 -2.98,2.87 z m -24.29,-3.913 c -0.5,0 -0.99,0.522 -0.99,1.043 0,0.261 0.49,0.783 0.99,0.783 24.54,0 24.54,0 24.54,0 0.5,0 0.75,-0.522 0.75,-0.783 0,-0.521 -0.25,-1.043 -0.75,-1.043 z"
           fill="#85015b"
           fill-rule="evenodd"
           id="path600" />
        <path
           d="m 1098.11,251 c -0.22,0 -0.67,-0.485 -0.67,-0.97 0,-7.515 0,-7.515 0,-7.515 -2.22,-2.424 -2.22,-2.424 -2.22,-2.424 -0.22,-0.243 -0.22,-0.485 -0.22,-0.485 0,-3.636 0,-3.636 0,-3.636 0,-0.485 0.44,-0.97 0.67,-0.97 0.44,0 0.89,0.485 0.89,0.97 0,3.151 0,3.151 0,3.151 2.22,2.424 2.22,2.424 2.22,2.424 0,0 0.22,0.243 0.22,0.485 0,8 0,8 0,8 0,0.485 -0.22,0.97 -0.89,0.97 z"
           fill="#85015b"
           fill-rule="evenodd"
           id="path602" />
        <path
           d="m 1116.96,246 c -0.53,0 -0.79,-0.458 -0.79,-0.917 0,-3.208 0,-3.208 0,-3.208 -3.65,-2.292 -3.65,-2.292 -3.65,-2.292 -0.26,-0.229 -0.52,-0.458 -0.52,-0.687 0,-2.979 0,-2.979 0,-2.979 0,-0.459 0.52,-0.917 1.04,-0.917 0.53,0 0.79,0.458 0.79,0.917 0,2.521 0,2.521 0,2.521 3.65,2.291 3.65,2.291 3.65,2.291 0.26,0.229 0.52,0.459 0.52,0.688 0,3.666 0,3.666 0,3.666 0,0.459 -0.26,0.917 -1.04,0.917 z"
           fill="#85015b"
           fill-rule="evenodd"
           id="path604" />
        <path
           d="m 1108.14,245 c -0.57,0 -1.14,-0.476 -1.14,-0.952 0,-8.096 0,-8.096 0,-8.096 0,-0.476 0.57,-0.952 1.14,-0.952 0.57,0 0.86,0.476 0.86,0.952 0,8.096 0,8.096 0,8.096 0,0.476 -0.29,0.952 -0.86,0.952 z"
           fill="#85015b"
           fill-rule="evenodd"
           id="path606" />
        <path
           d="m 1098.39,254 c -1.09,0 -2.39,-1.087 -2.39,-2.609 0,-1.304 1.09,-2.391 2.39,-2.391 1.52,0 2.61,1.087 2.61,2.391 0,1.522 -1.3,2.609 -2.61,2.609 z m 0,-3.261 c -0.22,0 -0.65,0.435 -0.65,0.652 0,0.435 0.43,0.87 0.65,0.87 0.44,0 0.87,-0.435 0.87,-0.87 0,-0.217 -0.22,-0.652 -0.87,-0.652 z"
           fill="#85015b"
           fill-rule="evenodd"
           id="path608" />
        <path
           d="m 1103,243 c -0.5,0 -1,-0.457 -1,-0.914 0,-6.172 0,-6.172 0,-6.172 0,-0.457 0.5,-0.914 1,-0.914 0.25,0 0.75,0.457 0.75,0.914 0,6.172 0,6.172 0,6.172 0.25,0.457 -0.25,0.914 -0.75,0.914 z"
           fill="#85015b"
           fill-rule="evenodd"
           id="path610" />
        <path
           d="m 1117.02,236 c -24.29,0 -24.29,0 -24.29,0 -1.49,0 -2.73,-0.909 -2.73,-2.5 0,-1.364 0.99,-2.5 2.73,-2.5 24.54,0 24.54,0 24.54,0 1.49,0 2.73,1.136 2.73,2.5 0,1.591 -1.24,2.5 -2.98,2.5 z m -24.29,-3.182 c -0.5,0 -0.99,0.227 -0.99,0.682 0,0.455 0.49,0.909 0.99,0.909 24.54,0 24.54,0 24.54,0 0.5,0 0.75,-0.454 0.75,-0.909 0,-0.455 -0.25,-0.682 -0.75,-0.682 z"
           fill="#85015b"
           fill-rule="evenodd"
           id="path612" />
        <path
           d="m 1142.97,206 c -8.5,0 -8.5,0 -8.5,0 -0.26,0 -0.52,0 -0.52,-0.235 -2.83,-2.118 -2.83,-2.118 -2.83,-2.118 -3.35,0 -3.35,0 -3.35,0 -0.25,0 -0.77,-0.471 -0.77,-0.941 0,-0.235 0.52,-0.706 0.77,-0.706 3.87,0 3.87,0 3.87,0 0.25,0 0.51,0 0.51,0.235 2.58,2.353 2.58,2.353 2.58,2.353 8.24,0 8.24,0 8.24,0 0.51,0 1.03,0.471 1.03,0.706 0,0.471 -0.52,0.706 -1.03,0.706 z"
           fill="#85015b"
           fill-rule="evenodd"
           id="path614" />
        <path
           d="m 1138,225 c -4,0 -4,0 -4,0 -0.25,0 -0.5,-0.217 -0.75,-0.435 -2.5,-3.043 -2.5,-3.043 -2.5,-3.043 -2.75,0 -2.75,0 -2.75,0 -0.5,0 -1,-0.218 -1,-0.652 0,-0.435 0.5,-0.87 1,-0.87 3.25,0 3.25,0 3.25,0 0.25,0 0.5,0.217 0.75,0.435 2.5,3.043 2.5,3.043 2.5,3.043 3.5,0 3.5,0 3.5,0 0.5,0 1,0.218 1,0.652 0,0.435 -0.25,0.87 -1,0.87 z"
           fill="#85015b"
           fill-rule="evenodd"
           id="path616" />
        <path
           d="m 1136.95,216 c -9.16,0 -9.16,0 -9.16,0 -0.27,0 -0.79,-0.286 -0.79,-0.571 0,-0.143 0.52,-0.429 0.79,-0.429 9.16,0 9.16,0 9.16,0 0.53,0 1.05,0.286 1.05,0.429 0,0.285 -0.52,0.571 -1.05,0.571 z"
           fill="#85015b"
           fill-rule="evenodd"
           id="path618" />
        <path
           d="m 1138.5,218 c -1.36,0 -2.5,-0.909 -2.5,-2.5 0,-1.364 1.14,-2.5 2.5,-2.5 1.36,0 2.5,1.136 2.5,2.5 0,1.591 -1.14,2.5 -2.5,2.5 z m 0,-3.182 c -0.45,0 -0.68,0.455 -0.68,0.682 0,0.455 0.23,0.909 0.68,0.909 0.45,0 0.91,-0.454 0.91,-0.909 0,-0.227 -0.46,-0.682 -0.91,-0.682 z"
           fill="#85015b"
           fill-rule="evenodd"
           id="path620" />
        <path
           d="m 1144.5,208 c -1.36,0 -2.5,-1.136 -2.5,-2.5 0,-1.591 1.14,-2.5 2.5,-2.5 1.36,0 2.5,0.909 2.5,2.5 0,1.364 -1.14,2.5 -2.5,2.5 z m 0,-3.409 c -0.45,0 -0.68,0.454 -0.68,0.909 0,0.455 0.23,0.682 0.68,0.682 0.45,0 0.91,-0.227 0.91,-0.682 0,-0.455 -0.46,-0.909 -0.91,-0.909 z"
           fill="#85015b"
           fill-rule="evenodd"
           id="path622" />
        <path
           d="m 1134.97,211 c -6.94,0 -6.94,0 -6.94,0 -0.52,0 -1.03,-0.571 -1.03,-0.857 0,-0.572 0.51,-1.143 1.03,-1.143 6.94,0 6.94,0 6.94,0 0.52,0 1.03,0.571 1.03,1.143 0,0.286 -0.26,0.857 -1.03,0.857 z"
           fill="#85015b"
           fill-rule="evenodd"
           id="path624" />
        <path
           d="m 1126.5,227 c -1.36,0 -2.5,-1.198 -2.5,-2.636 0,-23.728 0,-23.728 0,-23.728 0,-1.438 0.91,-2.636 2.5,-2.636 1.36,0 2.5,1.198 2.5,2.636 0,23.728 0,23.728 0,23.728 0,1.438 -1.14,2.636 -2.5,2.636 z m 0,-27.322 c -0.45,0 -0.91,0.479 -0.91,0.958 0,23.728 0,23.728 0,23.728 0,0.239 0.46,0.719 0.91,0.719 0.45,0 0.68,-0.48 0.68,-0.719 0,-23.728 0,-23.728 0,-23.728 0,-0.479 -0.23,-0.958 -0.68,-0.958 z"
           fill="#85015b"
           fill-rule="evenodd"
           id="path626" />
        <path
           d="m 1075.73,206 c -7.76,0 -7.76,0 -7.76,0 -0.49,0 -0.97,-0.222 -0.97,-0.667 0,-0.444 0.48,-0.889 0.97,-0.889 7.51,0 7.51,0 7.51,0 2.43,-2.222 2.43,-2.222 2.43,-2.222 0.24,0 0.48,-0.222 0.73,-0.222 3.39,0 3.39,0 3.39,0 0.49,0 0.97,0.444 0.97,0.889 0,0.444 -0.48,0.667 -0.97,0.667 -3.15,0 -3.15,0 -3.15,0 -2.43,2.222 -2.43,2.222 -2.43,2.222 -0.24,0.222 -0.48,0.222 -0.72,0.222 z"
           fill="#85015b"
           fill-rule="evenodd"
           id="path628" />
        <path
           d="m 1076,225 c -4,0 -4,0 -4,0 -0.5,0 -1,-0.435 -1,-0.87 0,-0.434 0.5,-0.652 1,-0.652 3.5,0 3.5,0 3.5,0 2.5,-3.043 2.5,-3.043 2.5,-3.043 0.25,-0.218 0.5,-0.435 0.75,-0.435 3.25,0 3.25,0 3.25,0 0.5,0 1,0.435 1,0.87 0,0.434 -0.5,0.652 -1,0.652 -2.75,0 -2.75,0 -2.75,0 -2.5,3.043 -2.5,3.043 -2.5,3.043 -0.25,0.218 -0.5,0.435 -0.75,0.435 z"
           fill="#85015b"
           fill-rule="evenodd"
           id="path630" />
        <path
           d="m 1082.05,216 c -8.1,0 -8.1,0 -8.1,0 -0.47,0 -0.95,-0.286 -0.95,-0.571 0,-0.143 0.48,-0.429 0.95,-0.429 8.1,0 8.1,0 8.1,0 0.47,0 0.95,0.286 0.95,0.429 0,0.285 -0.48,0.571 -0.95,0.571 z"
           fill="#85015b"
           fill-rule="evenodd"
           id="path632" />
        <path
           d="m 1071.5,218 c -1.36,0 -2.5,-0.909 -2.5,-2.5 0,-1.364 1.14,-2.5 2.5,-2.5 1.36,0 2.5,1.136 2.5,2.5 0,1.591 -1.14,2.5 -2.5,2.5 z m 0,-3.182 c -0.45,0 -0.91,0.455 -0.91,0.682 0,0.455 0.46,0.909 0.91,0.909 0.45,0 0.68,-0.454 0.68,-0.909 0,-0.227 -0.23,-0.682 -0.68,-0.682 z"
           fill="#85015b"
           fill-rule="evenodd"
           id="path634" />
        <path
           d="m 1065.5,208 c -1.36,0 -2.5,-1.136 -2.5,-2.5 0,-1.591 1.14,-2.5 2.5,-2.5 1.36,0 2.5,0.909 2.5,2.5 0,1.364 -1.14,2.5 -2.5,2.5 z m 0,-3.409 c -0.45,0 -0.91,0.454 -0.91,0.909 0,0.455 0.46,0.682 0.91,0.682 0.45,0 0.68,-0.227 0.68,-0.682 0,-0.455 -0.23,-0.909 -0.68,-0.909 z"
           fill="#85015b"
           fill-rule="evenodd"
           id="path636" />
        <path
           d="m 1081.97,211 c -6.94,0 -6.94,0 -6.94,0 -0.52,0 -1.03,-0.571 -1.03,-0.857 0,-0.572 0.51,-1.143 1.03,-1.143 6.94,0 6.94,0 6.94,0 0.52,0 1.03,0.571 1.03,1.143 0,0.286 -0.51,0.857 -1.03,0.857 z"
           fill="#85015b"
           fill-rule="evenodd"
           id="path638" />
        <path
           d="m 1083.5,227 c -1.36,0 -2.5,-1.198 -2.5,-2.636 0,-23.728 0,-23.728 0,-23.728 0,-1.438 1.14,-2.636 2.5,-2.636 1.59,0 2.5,1.198 2.5,2.636 0,23.728 0,23.728 0,23.728 0,1.438 -1.14,2.636 -2.5,2.636 z m 0,-27.322 c -0.45,0 -0.68,0.479 -0.68,0.958 0,23.728 0,23.728 0,23.728 0,0.239 0.23,0.719 0.68,0.719 0.45,0 0.91,-0.48 0.91,-0.719 0,-23.728 0,-23.728 0,-23.728 0,-0.479 -0.46,-0.958 -0.91,-0.958 z"
           fill="#85015b"
           fill-rule="evenodd"
           id="path640" />
        <path
           d="m 1105,229 c -3.41,0 -5,-8.436 -5,-16.624 0,-7.94 1.59,-16.376 5,-16.376 3.41,0 5,8.436 5,16.376 0,8.188 -1.59,16.624 -5,16.624 z m 0,-31.015 c -1.14,0 -3.41,4.962 -3.41,14.391 0,9.677 2.27,14.639 3.41,14.639 1.14,0 3.41,-4.962 3.41,-14.639 0,-9.429 -2.27,-14.391 -3.41,-14.391 z"
           fill="#85015b"
           fill-rule="evenodd"
           id="path642" />
        <path
           d="m 1095.46,225 c -0.74,0 -1.24,-0.253 -1.98,-0.758 -2.48,-2.525 1.98,-9.848 7.68,-15.656 5.2,-5.051 10.41,-8.586 13.38,-8.586 0.99,0 1.49,0.253 1.98,0.758 2.48,2.525 -1.98,9.848 -7.68,15.656 -4.95,5.051 -10.16,8.586 -13.38,8.586 z m 19.33,-23.232 c -2.23,0 -6.94,2.777 -12.39,8.08 -6.44,6.819 -8.43,12.122 -7.68,12.879 0.24,0.253 0.49,0.253 0.74,0.253 2.23,0 6.94,-2.778 12.39,-8.081 6.44,-6.818 8.42,-12.121 7.68,-12.879 -0.25,-0.252 -0.74,-0.252 -0.74,-0.252 z"
           fill="#85015b"
           fill-rule="evenodd"
           id="path644" />
        <path
           d="m 1114.67,225 c -3.13,0 -8.19,-3.283 -13,-8.586 -2.89,-2.778 -5.3,-6.06 -6.74,-8.838 -1.69,-3.283 -1.93,-5.556 -0.73,-6.818 0.49,-0.505 0.97,-0.758 1.93,-0.758 2.89,0 8.18,3.535 13,8.586 5.54,6.06 9.87,13.131 7.46,15.656 -0.48,0.505 -1.2,0.758 -1.92,0.758 z m -18.78,-23.232 c -0.24,0 -0.48,0 -0.72,0.252 -0.24,0.253 -0.24,1.515 1.2,4.293 1.2,2.778 3.61,5.808 6.26,8.586 5.3,5.303 9.87,8.081 12.04,8.081 0.24,0 0.48,0 0.72,-0.253 0.72,-0.757 -1.2,-6.06 -7.46,-12.879 -5.3,-5.303 -9.87,-8.08 -12.04,-8.08 z"
           fill="#85015b"
           fill-rule="evenodd"
           id="path646" />
        <path
           d="m 1105,218 c -8,0 -16,-1.956 -16,-5.622 0,-3.422 8,-5.378 16,-5.378 8,0 16,1.956 16,5.378 0,3.666 -8,5.622 -16,5.622 z m 0,-9.044 c -9.45,0 -14.3,2.2 -14.3,3.422 0,1.466 4.85,3.666 14.3,3.666 9.45,0 14.3,-2.2 14.3,-3.666 0,-1.222 -4.85,-3.422 -14.3,-3.422 z"
           fill="#85015b"
           fill-rule="evenodd"
           id="path648" />
        <path
           d="m 1153.82,205 c -0.49,0 -0.73,-0.244 -0.98,-0.489 -0.24,-0.733 0,-1.221 0.49,-1.466 10.07,-4.398 16.46,-14.66 15.48,-25.656 -1.23,-14.172 -13.51,-24.679 -27.76,-23.701 -10.56,0.977 -19.89,8.307 -22.84,18.326 -0.25,0.733 -0.74,0.977 -1.23,0.733 -0.73,0 -0.98,-0.733 -0.73,-1.222 3.19,-10.996 13.01,-19.059 24.56,-19.792 7.37,-0.733 14.73,1.71 20.38,6.353 5.65,4.887 9.09,11.728 9.83,19.059 0.98,11.973 -5.9,22.968 -16.7,27.855 -0.25,0 -0.5,0 -0.5,0 z"
           fill="#85015b"
           fill-rule="evenodd"
           id="path650" />
      </g>
    </g>
  </g>
</svg>
