<?xml version="1.0" encoding="UTF-8" standalone="no"?>
<!-- Created with Inkscape (http://www.inkscape.org/) -->

<svg
   width="100"
   height="100"
   viewBox="0 0 26.458333 26.458333"
   version="1.1"
   id="svg185"
   inkscape:version="1.2.2 (732a01da63, 2022-12-09)"
   sodipodi:docname="transf_infraestructura.svg"
   xmlns:inkscape="http://www.inkscape.org/namespaces/inkscape"
   xmlns:sodipodi="http://sodipodi.sourceforge.net/DTD/sodipodi-0.dtd"
   xmlns="http://www.w3.org/2000/svg"
   xmlns:svg="http://www.w3.org/2000/svg">
  <sodipodi:namedview
     id="namedview187"
     pagecolor="#ffffff"
     bordercolor="#000000"
     borderopacity="0.25"
     inkscape:showpageshadow="2"
     inkscape:pageopacity="0.0"
     inkscape:pagecheckerboard="0"
     inkscape:deskcolor="#d1d1d1"
     inkscape:document-units="mm"
     showgrid="false"
     inkscape:zoom="1.1893044"
     inkscape:cx="53.812968"
     inkscape:cy="321.61657"
     inkscape:window-width="4300"
     inkscape:window-height="1711"
     inkscape:window-x="2391"
     inkscape:window-y="-9"
     inkscape:window-maximized="1"
     inkscape:current-layer="g314" />
  <defs
     id="defs182" />
  <g
     inkscape:label="Capa 1"
     inkscape:groupmode="layer"
     id="layer1">
    <g
       transform="matrix(0.26458333,0,0,0.26458333,-84.878274,-17.952667)"
       id="g314">
      <g
         transform="matrix(0.82994497,0,0,0.82994497,-475.3577,-231.5413)"
         id="g823">
        <path
           d="m 1050,456.87 c 0,1.565 1.09,3.13 2.61,3.13 1.3,0 2.39,-1.304 2.39,-3.13 0,-1.566 -0.87,-2.87 -2.39,-2.87 -1.52,0 -2.61,1.304 -2.61,2.87 z m 3.26,0 c 0,0.521 -0.22,1.043 -0.65,1.043 -0.44,0 -0.87,-0.522 -0.87,-1.043 0,-0.522 0.43,-0.783 0.87,-0.783 0.43,0 0.65,0.261 0.65,0.783 z"
           fill="#85015b"
           fill-rule="evenodd"
           id="path803" />
        <path
           d="m 1045,454 c -1.5,0 -3,1.304 -3,2.87 0,1.565 1.25,3.13 3,3.13 1.5,0 3,-1.304 3,-3.13 -0.25,-1.566 -1.5,-2.87 -3,-2.87 z m 0,3.913 c -0.5,0 -1,-0.522 -1,-1.043 0,-0.522 0.5,-0.783 1,-0.783 0.5,0 1,0.261 1,0.783 0,0.521 -0.5,1.043 -1,1.043 z"
           fill="#85015b"
           fill-rule="evenodd"
           id="path805" />
        <path
           d="m 1037.04,456 c -24.08,0 -24.08,0 -24.08,0 -0.48,0 -0.96,0.286 -0.96,0.857 0,0.572 0.48,1.143 0.96,1.143 24.08,0 24.08,0 24.08,0 0.48,0 0.96,-0.571 0.96,-1.143 0,-0.571 -0.48,-0.857 -0.96,-0.857 z"
           fill="#85015b"
           fill-rule="evenodd"
           id="path807" />
        <path
           d="m 1050,439 c 0,1.5 1.09,3 2.61,3 1.3,0 2.39,-1.25 2.39,-3 0,-1.5 -0.87,-3 -2.39,-3 -1.52,0 -2.61,1.5 -2.61,3 z m 3.26,0 c 0,0.5 -0.22,1 -0.65,1 -0.44,0 -0.87,-0.5 -0.87,-1 0,-0.5 0.43,-1 0.87,-1 0.43,0 0.65,0.5 0.65,1 z"
           fill="#85015b"
           fill-rule="evenodd"
           id="path809" />
        <path
           d="m 1045,436 c -1.5,0 -3,1.25 -3,3 0,1.5 1.25,3 3,3 1.5,0 3,-1.25 3,-3 -0.25,-1.5 -1.5,-3 -3,-3 z m 0,4 c -0.5,0 -1,-0.5 -1,-1 0,-0.5 0.5,-1 1,-1 0.5,0 1,0.5 1,1 0,0.5 -0.5,1 -1,1 z"
           fill="#85015b"
           fill-rule="evenodd"
           id="path811" />
        <path
           d="m 1037.04,438 c -24.08,0 -24.08,0 -24.08,0 -0.48,0 -0.96,0.5 -0.96,1 0,0.5 0.48,1 0.96,1 24.08,0 24.08,0 24.08,0 0.48,0 0.96,-0.5 0.96,-1 0,-0.5 -0.48,-1 -0.96,-1 z"
           fill="#85015b"
           fill-rule="evenodd"
           id="path813" />
        <path
           d="m 1052.61,424 c 1.3,0 2.39,-1.304 2.39,-2.87 0,-1.565 -0.87,-3.13 -2.39,-3.13 -1.31,0 -2.61,1.304 -2.61,3.13 0,1.566 1.09,2.87 2.61,2.87 z m 0,-3.913 c 0.43,0 0.65,0.522 0.65,1.043 0,0.522 -0.22,0.783 -0.65,0.783 -0.44,0 -0.87,-0.261 -0.87,-0.783 -0.22,-0.521 0.22,-1.043 0.87,-1.043 z"
           fill="#85015b"
           fill-rule="evenodd"
           id="path815" />
        <path
           d="m 1045,424 c 1.5,0 3,-1.304 3,-2.87 0,-1.565 -1.25,-3.13 -3,-3.13 -1.5,0 -3,1.304 -3,3.13 0,1.566 1.25,2.87 3,2.87 z m 0,-3.913 c 0.5,0 1,0.522 1,1.043 0,0.522 -0.5,0.783 -1,0.783 -0.5,0 -1,-0.261 -1,-0.783 0,-0.521 0.25,-1.043 1,-1.043 z"
           fill="#85015b"
           fill-rule="evenodd"
           id="path817" />
        <path
           d="m 1038,421 c 0,-0.5 -0.48,-1 -0.96,-1 -24.08,0 -24.08,0 -24.08,0 -0.48,0 -0.96,0.5 -0.96,1 0,0.5 0.48,0.75 0.96,0.75 24.08,0 24.08,0 24.08,0 0.48,0.25 0.96,-0.25 0.96,-0.75 z"
           fill="#85015b"
           fill-rule="evenodd"
           id="path819" />
        <path
           d="m 1062.35,428.105 c 1.95,0 3.65,-1.721 3.65,-3.688 0,-7.867 0,-7.867 0,-7.867 0,-1.967 -1.7,-3.442 -3.65,-3.442 -10.45,0 -10.45,0 -10.45,0 0,-28.52 0,-28.52 0,-28.52 0,-0.491 -0.24,-0.983 -0.73,-0.983 -26.25,0 -26.25,0 -26.25,0 -0.49,0 -0.98,0.492 -0.98,0.983 0,0.492 0.49,0.738 0.98,0.738 25.28,0 25.28,0 25.28,0 0,27.536 0,27.536 0,27.536 -31.12,0 -31.12,0 -31.12,0 7.05,-9.097 6.81,-22.127 -1.21,-30.486 -0.25,-0.246 -0.25,-0.246 -0.25,-0.246 -4.13,-4.426 -9.96,-7.13 -16.53,-7.13 -12.637,0 -23.09,10.326 -23.09,23.356 0,12.785 10.453,23.357 23.09,23.357 3.89,0 7.54,-0.984 10.7,-2.705 0,5.409 0,5.409 0,5.409 0,1.967 1.46,3.688 3.4,3.688 3.89,0 3.89,0 3.89,0 0,2.704 0,2.704 0,2.704 -3.89,0 -3.89,0 -3.89,0 -1.94,0 -3.4,1.721 -3.4,3.688 0,7.622 0,7.622 0,7.622 0,1.967 1.46,3.688 3.4,3.688 3.89,0 3.89,0 3.89,0 0,2.95 0,2.95 0,2.95 -3.89,0 -3.89,0 -3.89,0 -1.94,0 -3.4,1.721 -3.4,3.688 0,2.704 0,2.704 0,2.704 -28.199,0 -28.199,0 -28.199,0 0,-35.649 0,-35.649 0,-35.649 0,-0.492 -0.243,-0.983 -0.729,-0.983 -0.486,0 -0.972,0.491 -0.972,0.983 0,36.878 0,36.878 0,36.878 0,0.492 0.486,0.984 0.972,0.984 28.928,0 28.928,0 28.928,0 0,2.95 0,2.95 0,2.95 0,1.967 1.7,3.688 3.65,3.688 46.91,0 46.91,0 46.91,0 1.95,0 3.65,-1.721 3.65,-3.688 0,-7.867 0,-7.867 0,-7.867 0,-1.967 -1.7,-3.442 -3.65,-3.442 -3.89,0 -3.89,0 -3.89,0 0,-2.951 0,-2.951 0,-2.951 3.89,0 3.89,0 3.89,0 1.95,0 3.65,-1.721 3.65,-3.687 0,-7.622 0,-7.622 0,-7.622 0,-1.967 -1.7,-3.688 -3.65,-3.688 -3.89,0 -3.89,0 -3.89,0 0,-2.95 0,-2.95 0,-2.95 3.89,0 3.89,0 3.89,0 z M 985.293,412.37 c -3.16,-3.442 -5.105,-8.113 -5.348,-13.03 7.293,0 7.293,0 7.293,0 0,3.688 0.486,7.13 1.458,10.08 -1.215,0.737 -2.431,1.721 -3.403,2.95 z m 0,-28.027 c 1.215,0.983 2.188,1.966 3.646,2.704 -0.972,3.196 -1.701,6.638 -1.701,10.08 -7.05,0 -7.05,0 -7.05,0 0,-4.671 1.945,-9.342 5.105,-12.784 z m 31.607,0 c 3.16,3.442 5.1,7.867 5.34,12.784 -7.29,0 -7.29,0 -7.29,0 0,-3.442 -0.49,-6.884 -1.7,-10.08 1.21,-0.738 2.67,-1.721 3.65,-2.704 z m -3.89,13.03 c -10.94,0 -10.94,0 -10.94,0 0,-6.638 0,-6.638 0,-6.638 3.4,-0.246 6.56,-0.984 9.72,-2.459 0.73,2.705 1.22,5.901 1.22,9.097 z m -10.94,-8.605 c 0,-11.801 0,-11.801 0,-11.801 4.13,0.492 7.29,5.163 8.99,9.342 -2.92,1.476 -5.83,2.213 -8.99,2.459 z m -1.95,-11.801 c 0,11.801 0,11.801 0,11.801 -3.159,-0.246 -6.319,-0.983 -8.993,-2.459 1.459,-4.179 4.619,-8.85 8.993,-9.342 z m 0,13.768 c 0,6.638 0,6.638 0,6.638 -10.938,0 -10.938,0 -10.938,0 0,-3.196 0.487,-6.392 1.459,-9.097 2.917,1.475 6.077,2.213 9.479,2.459 z m -10.938,8.359 c 10.938,0 10.938,0 10.938,0 0,6.884 0,6.884 0,6.884 -3.402,0 -6.562,0.983 -9.722,2.458 -0.729,-2.95 -1.216,-5.9 -1.216,-9.342 z m 10.938,8.605 c 0,11.801 0,11.801 0,11.801 -4.374,-0.492 -7.534,-5.163 -8.993,-9.343 2.674,-1.475 5.834,-2.212 8.993,-2.458 z m 1.95,12.047 c 0,-11.801 0,-11.801 0,-11.801 3.16,0 6.07,0.983 8.99,2.212 -1.7,4.18 -4.86,8.851 -8.99,9.589 z m 0,-13.768 c 0,-6.884 0,-6.884 0,-6.884 10.94,0 10.94,0 10.94,0 0,3.442 -0.49,6.392 -1.46,9.342 -2.92,-1.475 -6.08,-2.458 -9.48,-2.458 z m 12.88,-6.884 c 7.29,0 7.29,0 7.29,0 -0.24,5.163 -2.18,9.588 -5.34,13.03 -1.22,-0.983 -2.44,-1.967 -3.65,-2.704 0.97,-3.196 1.7,-6.638 1.7,-10.326 z m 0.73,-16.227 c -0.73,0.984 -1.95,1.721 -2.92,2.459 -1.46,-3.442 -2.91,-5.655 -4.62,-7.376 2.92,1.23 5.35,2.705 7.54,4.917 z m -26.255,2.459 c -0.972,-0.738 -2.187,-1.475 -2.917,-2.459 1.945,-2.212 4.619,-3.687 7.536,-4.671 -1.701,1.475 -3.403,3.934 -4.619,7.13 z m -2.917,28.519 c 0.73,-0.983 1.945,-1.967 2.917,-2.458 1.216,3.196 2.918,5.654 4.619,7.13 -2.917,-1.23 -5.348,-2.705 -7.536,-4.672 z m 26.012,-2.704 c 1.21,0.737 2.19,1.475 3.16,2.458 -2.19,2.213 -4.86,3.688 -7.78,4.672 1.7,-1.23 3.4,-3.688 4.62,-7.13 z m 1.21,13.276 c 0,-6.638 0,-6.638 0,-6.638 1.22,-0.738 2.44,-1.721 3.65,-2.95 44.97,0 44.97,0 44.97,0 1.22,0 1.95,0.737 1.95,1.721 0,7.867 0,7.867 0,7.867 0,0.984 -0.73,1.721 -1.95,1.721 -5.83,0 -41.81,0 -46.91,0 -0.98,0 -1.71,-0.983 -1.71,-1.721 z m 50.33,28.028 c 0,7.867 0,7.867 0,7.867 0,0.984 -0.73,1.721 -1.71,1.721 -46.91,0 -46.91,0 -46.91,0 -0.98,0 -1.71,-0.737 -1.71,-1.721 0,-7.867 0,-7.867 0,-7.867 0,-0.984 0.73,-1.721 1.71,-1.721 6.07,0 42.05,0 46.91,0 0.98,0 1.71,0.983 1.71,1.721 z m -7.54,-3.442 c -35.49,0 -35.49,0 -35.49,0 0,-2.951 0,-2.951 0,-2.951 35.73,0 35.73,0 35.73,0 0,2.951 0,2.951 0,2.951 z m 7.54,-14.506 c 0,7.622 0,7.622 0,7.622 0,1.229 -0.73,1.967 -1.71,1.967 -5.1,0 -40.84,0 -47.16,0 -0.97,0 -1.7,-0.738 -1.7,-1.967 0,-7.622 0,-7.622 0,-7.622 0,-0.983 0.73,-1.721 1.7,-1.721 5.11,0 41.09,0 47.16,0 0.98,0 1.71,0.738 1.71,1.721 z m -7.54,-3.688 c -35.49,0 -35.49,0 -35.49,0 0,-2.704 0,-2.704 0,-2.704 35.73,0 35.73,0 35.73,0 0,2.704 0,2.704 0,2.704 z"
           fill="#85015b"
           fill-rule="evenodd"
           id="path821" />
      </g>
    </g>
  </g>
</svg>
