<svg xmlns="http://www.w3.org/2000/svg" width="86.101" height="91.389" viewBox="0 0 86.101 91.389">
  <g id="inf-ico" transform="translate(-0.5 -0.001)">
    <path id="Trazado_113" data-name="Trazado 113" d="M86.6,22.316A7.491,7.491,0,0,0,73.7,17.13L44.443.24a1.785,1.785,0,0,0-1.784,0L13.4,17.13A7.494,7.494,0,1,0,6.212,29.6v33.77A1.786,1.786,0,0,0,7.1,64.912L36.352,81.8a7.5,7.5,0,1,0,14.394,0L80,64.912a1.785,1.785,0,0,0,.892-1.546V29.6a7.508,7.508,0,0,0,5.712-7.28Zm-82.531,0A3.927,3.927,0,1,1,8,26.243,3.931,3.931,0,0,1,4.07,22.316Zm39.478,65.5a3.927,3.927,0,1,1,3.927-3.927A3.931,3.931,0,0,1,43.548,87.82Zm5.409-9.11a7.479,7.479,0,0,0-10.816,0L9.782,62.336V29.6a7.492,7.492,0,0,0,5.411-9.378L43.55,3.846,71.909,20.218A7.492,7.492,0,0,0,77.32,29.6V62.336ZM79.1,26.243a3.927,3.927,0,1,1,3.927-3.927A3.932,3.932,0,0,1,79.1,26.243Zm0,0" fill="#e81e79"/>
    <path id="Trazado_114" data-name="Trazado 114" d="M149.487,91.425l-23.561-13.6a1.785,1.785,0,0,0-1.784,0l-23.561,13.6a1.786,1.786,0,0,0-.892,1.546v27.206a1.785,1.785,0,0,0,.892,1.546l23.561,13.6a1.784,1.784,0,0,0,1.784,0l23.561-13.6a1.785,1.785,0,0,0,.892-1.546V92.971A1.786,1.786,0,0,0,149.487,91.425Zm-24.454-10,19.991,11.542-19.991,11.542L105.043,92.971Zm1.785,49.259v-8.05a1.785,1.785,0,1,0-3.569,0v8.05l-19.991-11.542V96.062l20.884,12.058a1.784,1.784,0,0,0,1.784,0L146.81,96.062v23.084Zm0,0" transform="translate(-81.483 -63.734)" fill="#e81e79"/>
    <path id="Trazado_115" data-name="Trazado 115" d="M233.451,275a1.785,1.785,0,1,0,1.262.523A1.8,1.8,0,0,0,233.451,275Zm0,0" transform="translate(-189.902 -225.913)" fill="#e81e79"/>
  </g>
</svg>
