<svg width="42" height="42" viewBox="0 0 42 42" fill="none" xmlns="http://www.w3.org/2000/svg">
<g clip-path="url(#clip0)">
<path d="M0.481196 22.2939C0.481688 22.2945 0.482099 22.2952 0.482673 22.2958L9.05527 32.4324C9.69749 33.1917 10.7363 33.1889 11.3755 32.4257C12.0147 31.6627 12.0122 30.4284 11.37 29.669L5.61438 22.8634L40.3594 22.8634C41.2655 22.8634 42 21.9907 42 20.9141C42 19.8375 41.2655 18.9647 40.3594 18.9647L5.61447 18.9647L11.3699 12.1592C12.0122 11.3997 12.0146 10.1655 11.3754 9.40242C10.7362 8.63915 9.69733 8.63652 9.05519 9.39579L0.482591 19.5324C0.482098 19.533 0.481688 19.5336 0.481114 19.5342C-0.161437 20.2962 -0.159386 21.5344 0.481196 22.2939Z" fill="#828282"/>
</g>
<defs>
<clipPath id="clip0">
<rect width="42" height="42" fill="white" transform="translate(42 42) rotate(-180)"/>
</clipPath>
</defs>
</svg>
