<svg width="42" height="42" viewBox="0 0 42 42" fill="none" xmlns="http://www.w3.org/2000/svg">
<g clip-path="url(#clip0)">
<path d="M41.5188 19.7061C41.5183 19.7055 41.5179 19.7048 41.5173 19.7042L32.9447 9.56764C32.3025 8.80828 31.2637 8.8111 30.6245 9.57427C29.9853 10.3373 29.9878 11.5716 30.63 12.331L36.3856 19.1366L1.64063 19.1366C0.734508 19.1366 0 20.0093 0 21.0859C0 22.1625 0.734508 23.0353 1.64063 23.0353L36.3855 23.0353L30.6301 29.8408C29.9878 30.6003 29.9854 31.8345 30.6246 32.5976C31.2638 33.3608 32.3027 33.3635 32.9448 32.6042L41.5174 22.4676C41.5179 22.467 41.5183 22.4664 41.5189 22.4658C42.1614 21.7038 42.1594 20.4655 41.5188 19.7061Z" fill="#828282"/>
</g>
<defs>
<clipPath id="clip0">
<rect width="42" height="42" fill="white"/>
</clipPath>
</defs>
</svg>
