<svg xmlns="http://www.w3.org/2000/svg" width="77.332" height="89.176" viewBox="0 0 77.332 89.176">
  <g id="shield-ico" transform="translate(-0.5 0)">
    <path id="Trazado_116" data-name="Trazado 116" d="M76.7,13.788,65.174,9.519a1.742,1.742,0,1,0-1.21,3.266l10.385,3.847V37.512a50.2,50.2,0,0,1-35.183,48.1,50.2,50.2,0,0,1-35.183-48.1V16.633L39.166,3.6l10.1,3.74a1.742,1.742,0,0,0,1.21-3.266L39.771.108a1.745,1.745,0,0,0-1.21,0L1.637,13.788A1.741,1.741,0,0,0,.5,15.421v22.09A53.952,53.952,0,0,0,38.656,89.1a1.732,1.732,0,0,0,1.021,0A53.952,53.952,0,0,0,77.833,37.512V15.421A1.742,1.742,0,0,0,76.7,13.788Zm0,0" transform="translate(0 0)" fill="#e81e79"/>
    <path id="Trazado_117" data-name="Trazado 117" d="M78.174,50.334,49.61,61.443a1.741,1.741,0,0,0-1.11,1.623V78.981a45.345,45.345,0,0,0,29.7,42.735,1.745,1.745,0,0,0,1.21,0,45.345,45.345,0,0,0,29.7-42.735V63.066A1.742,1.742,0,0,0,108,61.443L79.437,50.334a1.739,1.739,0,0,0-1.263,0Zm27.454,28.647a41.688,41.688,0,0,1-26.822,39.24,41.687,41.687,0,0,1-26.822-39.24V64.258L78.806,53.826l26.822,10.432Zm0,0" transform="translate(-39.64 -41.469)" fill="#e81e79"/>
    <path id="Trazado_118" data-name="Trazado 118" d="M138.073,121.965v3.556h-.2A5.384,5.384,0,0,0,132.5,130.9v17.027a5.383,5.383,0,0,0,5.378,5.378h20.6a5.383,5.383,0,0,0,5.378-5.378V130.9a5.384,5.384,0,0,0-5.378-5.378h-.2v-3.556a10.1,10.1,0,1,0-20.2,0Zm22.294,8.933v17.027a1.9,1.9,0,0,1-1.894,1.894h-20.6a1.9,1.9,0,0,1-1.894-1.894V130.9A1.9,1.9,0,0,1,137.878,129h20.6A1.9,1.9,0,0,1,160.367,130.9Zm-5.573-8.933v3.556H141.557v-3.556a6.619,6.619,0,0,1,13.237,0Zm0,0" transform="translate(-109.009 -92.38)" fill="#e81e79"/>
    <path id="Trazado_119" data-name="Trazado 119" d="M197.725,229.977a5.225,5.225,0,0,0-1.742,10.151v1.364a1.742,1.742,0,1,0,3.483,0v-1.364a5.225,5.225,0,0,0-1.742-10.151Zm0,6.967a1.742,1.742,0,1,1,1.742-1.742A1.743,1.743,0,0,1,197.725,236.944Zm0,0" transform="translate(-158.559 -189.922)" fill="#e81e79"/>
    <path id="Trazado_120" data-name="Trazado 120" d="M317.879,41.882a1.742,1.742,0,1,0-1.231-.51A1.754,1.754,0,0,0,317.879,41.882Zm0,0" transform="translate(-260.662 -31.71)" fill="#e81e79"/>
  </g>
</svg>
