<?xml version="1.0" encoding="UTF-8" standalone="no"?>
<!-- Created with Inkscape (http://www.inkscape.org/) -->

<svg
   width="100"
   height="100"
   viewBox="0 0 26.458333 26.458333"
   version="1.1"
   id="svg185"
   inkscape:version="1.2.2 (732a01da63, 2022-12-09)"
   sodipodi:docname="gestion_soluciones.svg"
   xmlns:inkscape="http://www.inkscape.org/namespaces/inkscape"
   xmlns:sodipodi="http://sodipodi.sourceforge.net/DTD/sodipodi-0.dtd"
   xmlns="http://www.w3.org/2000/svg"
   xmlns:svg="http://www.w3.org/2000/svg">
  <sodipodi:namedview
     id="namedview187"
     pagecolor="#ffffff"
     bordercolor="#000000"
     borderopacity="0.25"
     inkscape:showpageshadow="2"
     inkscape:pageopacity="0.0"
     inkscape:pagecheckerboard="0"
     inkscape:deskcolor="#d1d1d1"
     inkscape:document-units="mm"
     showgrid="false"
     inkscape:zoom="1.1893044"
     inkscape:cx="53.812968"
     inkscape:cy="321.61657"
     inkscape:window-width="4300"
     inkscape:window-height="1711"
     inkscape:window-x="2391"
     inkscape:window-y="-9"
     inkscape:window-maximized="1"
     inkscape:current-layer="g314" />
  <defs
     id="defs182" />
  <g
     inkscape:label="Capa 1"
     inkscape:groupmode="layer"
     id="layer1">
    <g
       transform="matrix(0.26458333,0,0,0.26458333,-84.878274,-17.952667)"
       id="g314">
      <g
         transform="translate(-534.40862,-85.075614)"
         id="g563">
        <path
           d="m 931.5,203 c -5.359,0 -9.5,4.141 -9.5,9.5 0,5.115 4.141,9.5 9.5,9.5 5.115,0 9.5,-4.385 9.5,-9.5 0,-5.359 -4.385,-9.5 -9.5,-9.5 z m 0,17.051 c -4.385,0 -7.795,-3.41 -7.795,-7.551 0,-4.385 3.41,-7.795 7.795,-7.795 4.141,0 7.551,3.41 7.551,7.795 0,4.141 -3.41,7.551 -7.551,7.551 z"
           fill="#85015b"
           fill-rule="evenodd"
           id="path559" />
        <path
           d="m 945.562,207.938 c -0.732,-0.74 -0.976,-1.233 -0.976,-1.973 0,-2.958 -1.706,-5.423 -4.388,-5.916 0,-26.379 0,-26.379 0,-26.379 0,-3.205 -2.683,-5.67 -5.852,-5.67 -59.738,0 -59.738,0 -59.738,0 -3.17,0 -5.608,2.465 -5.608,5.67 0,59.413 0,59.413 0,59.413 0,3.205 2.438,5.67 5.608,5.67 49.253,0 47.303,0 47.546,0 9.753,-3.944 9.753,-3.944 9.753,-3.944 10.485,4.191 9.997,3.944 10.241,3.944 0.488,0 0.975,-0.493 0.732,-1.232 -2.682,-13.066 -2.682,-13.066 -2.682,-13.066 2.194,-0.74 4.388,-3.205 4.388,-5.917 0,-0.739 0.244,-1.479 0.732,-1.972 2.682,-2.219 2.682,-6.163 0.244,-8.628 z m -7.071,-34.268 c 0,4.931 0,4.931 0,4.931 -26.821,0 -26.821,0 -26.821,0 0,-9.122 0,-9.122 0,-9.122 22.919,0 22.919,0 22.919,0 2.195,0.247 3.902,1.972 3.902,4.191 z m -28.528,1.479 c 0,3.452 0,3.452 0,3.452 -39.012,0 -39.012,0 -39.012,0 0,-3.452 0,-3.452 0,-3.452 0,-1.725 0,-1.725 0,-1.725 0.243,-2.219 1.706,-3.698 3.901,-3.698 35.111,0 35.111,0 35.111,0 0,3.698 0,3.698 0,3.698 m -39.012,59.659 c 0,-52.51 0,-52.51 0,-52.51 67.54,0 67.54,0 67.54,0 0,18.983 0,18.983 0,18.983 -0.732,0 -1.463,-0.247 -1.951,-0.74 -0.975,-0.986 -2.194,-1.726 -3.657,-1.726 0,-10.354 0,-10.354 0,-10.354 0,-0.493 -0.244,-0.986 -0.732,-0.986 -55.105,0 -55.105,0 -55.105,0 -0.487,0 -0.731,0.493 -0.731,0.986 0,43.882 0,43.882 0,43.882 0,0.493 0.244,0.986 0.731,0.986 45.352,0 45.352,0 45.352,0 -0.975,5.424 -0.975,5.424 -0.975,5.424 -46.571,0 -46.571,0 -46.571,0 -2.195,0 -3.901,-1.726 -3.901,-3.945 z m 60.225,-39.198 c 0,0.987 0,0.987 0,0.987 0,2.218 0,2.218 0,2.218 -1.219,0 -2.438,0.74 -3.414,1.726 -0.731,0.493 -1.219,0.74 -1.95,0.74 -3.414,0 -6.096,2.958 -6.096,6.409 0,0.74 -0.488,1.479 -0.975,1.973 -2.439,2.465 -2.439,6.409 0,8.874 0.487,0.494 0.975,0.987 0.975,1.726 0,2.959 1.707,5.177 4.389,6.163 -1.219,5.177 -1.219,5.177 -1.219,5.177 -44.864,0 -44.864,0 -44.864,0 0,-4.437 0,-4.437 0,-4.437 0,-1.726 0,-1.726 0,-1.726 0,-35.993 0,-35.993 0,-35.993 53.154,0 53.154,0 53.154,0 0,4.438 0,4.438 0,4.438 m 9.997,44.375 c -8.29,-3.452 -8.29,-3.452 -8.29,-3.452 0,-2.465 0,-2.465 0,-2.465 0,-0.246 -0.244,-0.74 -0.732,-0.74 -0.487,0 -0.975,0.494 -0.975,0.74 0,2.465 0,2.465 0,2.465 -8.046,3.452 -8.046,3.452 -8.046,3.452 1.706,-7.15 0.243,-0.986 2.682,-11.587 0,0 0,0 0,0 0.731,0 1.463,0.246 1.95,0.986 2.439,2.219 6.34,2.219 8.778,0 0.488,-0.74 1.219,-0.986 1.951,-0.986 0,0 0,0 0,0 z m 2.926,-20.955 c -0.732,0.739 -1.219,1.972 -1.219,2.958 0,2.465 -1.951,4.438 -4.389,4.438 -1.219,0 -2.195,0.493 -3.17,1.479 -1.707,1.726 -4.389,1.726 -6.096,0 -0.975,-0.986 -2.194,-1.479 -3.169,-1.479 -2.439,0 -4.389,-1.973 -4.389,-4.438 0,-0.986 -0.488,-2.219 -1.463,-2.958 -1.707,-1.726 -1.707,-4.684 0,-6.41 0.975,-0.986 1.463,-1.972 1.463,-3.205 0,-2.465 1.95,-4.437 4.389,-4.437 0.975,0 2.194,-0.493 3.169,-1.233 1.707,-1.726 4.389,-1.726 6.096,0 0.975,0.74 1.951,1.233 3.17,1.233 2.438,0 4.389,1.972 4.389,4.437 0,1.233 0.487,2.219 1.219,3.205 0.975,0.74 1.463,1.972 1.463,3.205 0,0.986 -0.488,2.219 -1.463,3.205 z"
           fill="#85015b"
           fill-rule="evenodd"
           id="path561" />
      </g>
    </g>
  </g>
</svg>
